<svg width="25" height="24" viewBox="0 0 25 24" fill="none" xmlns="http://www.w3.org/2000/svg">
<path d="M24.3304 12.0005C24.3304 18.6267 18.958 23.999 12.3289 24C5.70467 24 0.332292 18.6267 0.333252 11.9995C0.331332 5.37238 5.70371 0 12.3309 0C18.958 0 24.3304 5.37333 24.3304 12.0005Z" fill="#CBD5E1"/>
<path fill-rule="evenodd" clip-rule="evenodd" d="M17.0523 9.06096C16.8977 7.45385 15.5105 6.91527 13.7574 6.76166V4.53149H12.4009V6.70214C12.0447 6.70214 11.6799 6.70886 11.318 6.71654V4.53149H9.96143L9.96047 6.75974L9.94593 6.76003L9.9459 6.76003C9.65715 6.76569 9.37308 6.77126 9.09644 6.77126V6.76454L7.22533 6.76358V8.21324C7.22533 8.21324 8.22761 8.19404 8.21032 8.21228C8.76043 8.21228 8.93899 8.53101 8.99084 8.80654V11.3468C9.02924 11.3468 9.0782 11.3487 9.13388 11.3564H8.99084L8.98988 14.9153C8.96587 15.0881 8.86411 15.3636 8.4801 15.3646C8.49738 15.3799 7.49414 15.3646 7.49414 15.3646L7.22437 16.9851H8.99084C9.18993 16.9851 9.38725 16.9872 9.58238 16.9893L9.58272 16.9893L9.58296 16.9893C9.70944 16.9907 9.835 16.992 9.95951 16.9928L9.96047 19.2479H11.316V17.0168C11.6876 17.0245 12.0476 17.0274 12.3999 17.0274L12.399 19.2479H13.7555V16.9976C16.0366 16.867 17.635 16.292 17.8328 14.1492C17.9931 12.424 17.1819 11.6531 15.8868 11.342C16.675 10.9426 17.1675 10.237 17.0523 9.06096ZM15.1534 13.8823C15.1534 15.4298 12.7195 15.3948 11.6094 15.3788C11.5109 15.3774 11.4228 15.3761 11.3478 15.3761V12.3875C11.4416 12.3877 11.5557 12.3851 11.6851 12.3822C12.8262 12.3566 15.1534 12.3044 15.1534 13.8823ZM11.5747 11.0239C12.5036 11.0385 14.5217 11.0704 14.5217 9.66676C14.5226 8.23018 12.5779 8.28165 11.6271 8.30681C11.52 8.30964 11.4255 8.31214 11.3478 8.31214V11.0214C11.4125 11.0213 11.489 11.0225 11.5747 11.0239Z" fill="white"/>
<path d="M8.99292 11.2874H9.19453V11.4362H8.99292V11.2874Z" fill="white"/>
</svg>
