<svg width="24" height="24" viewBox="0 0 24 24" fill="none" xmlns="http://www.w3.org/2000/svg">
<circle cx="12" cy="12" r="12" fill="#CBD5E1"/>
<path d="M11.2248 3.56275C11.6406 2.84464 12.3022 2.84464 12.718 3.56275L13.2941 4.60182L14.6555 6.99244C14.986 7.67254 14.9859 8.47541 14.6555 9.15553L10.091 17.0647C9.67532 17.707 8.98602 18.1131 8.2209 18.1604H4.43184C3.60035 18.1604 3.26024 17.5843 3.67598 16.8567L11.2248 3.56275ZM16.2336 12.3118C16.6493 11.5939 17.3198 11.5938 17.7356 12.3118L20.3244 16.8567C20.7402 17.5748 20.4001 18.1604 19.5686 18.1604H14.3527C13.5308 18.1603 13.1906 17.5747 13.5969 16.8567L16.2336 12.3118Z" fill="white"/>
</svg>
