<svg width="25" height="24" viewBox="0 0 25 24" fill="none" xmlns="http://www.w3.org/2000/svg">
<path fill-rule="evenodd" clip-rule="evenodd" d="M12.6667 24C6.06675 24 0.666748 18.6001 0.666748 11.9402C0.726748 5.34038 6.06675 -0.0595036 12.7267 0.000495204C19.3267 0.060494 24.6667 5.40038 24.6667 12.1202C24.6067 18.6601 19.2667 24 12.6667 24" fill="#CBD5E1"/>
<path d="M8.74082 18L10.4763 14.9947L12.2117 12L13.9366 8.99471L14.2223 8.51852L14.3493 8.99471L14.8784 10.9735L14.2858 12L12.5503 14.9947L10.8255 18H12.8996L14.635 14.9947L15.5345 13.4392L15.9578 14.9947L16.762 18H18.6244L17.8202 14.9947L17.016 12L16.8043 11.2275L18.0953 8.99471H16.2117L16.1482 8.77249L15.4921 6.31746L15.4075 6H13.598L13.5556 6.06349L11.8625 8.99471L10.1271 12L8.4022 14.9947L6.66675 18H8.74082Z" fill="white"/>
</svg>
