<svg width="20" height="20" viewBox="0 0 20 20" fill="none" xmlns="http://www.w3.org/2000/svg">
<path d="M14.1665 2.7832C15.4234 3.50892 16.469 4.55031 17.1997 5.80429C17.9304 7.05827 18.321 8.48135 18.3327 9.93265C18.3444 11.384 17.9769 12.8132 17.2665 14.0788C16.5561 15.3444 15.5275 16.4025 14.2825 17.1485C13.0375 17.8944 11.6193 18.3022 10.1683 18.3316C8.7172 18.361 7.28363 18.0108 6.00947 17.3159C4.7353 16.621 3.66473 15.6053 2.90373 14.3695C2.14272 13.1336 1.71768 11.7205 1.67067 10.2699L1.6665 9.99987L1.67067 9.72987C1.71734 8.2907 2.13613 6.88817 2.8862 5.65903C3.63628 4.42989 4.69205 3.41608 5.95058 2.71644C7.20911 2.0168 8.62746 1.6552 10.0673 1.6669C11.5072 1.6786 12.9195 2.0632 14.1665 2.7832ZM13.089 7.74404C12.9455 7.60056 12.7546 7.51436 12.5521 7.50163C12.3496 7.4889 12.1493 7.55049 11.989 7.67487L11.9107 7.74404L9.1665 10.4874L8.089 9.4107L8.01067 9.34154C7.85032 9.21725 7.65015 9.15572 7.44767 9.1685C7.2452 9.18127 7.05434 9.26747 6.91089 9.41092C6.76744 9.55438 6.68124 9.74523 6.66847 9.94771C6.65569 10.1502 6.71722 10.3504 6.8415 10.5107L6.91067 10.589L8.57734 12.2557L8.65567 12.3249C8.80182 12.4383 8.98153 12.4998 9.1665 12.4998C9.35148 12.4998 9.53119 12.4383 9.67734 12.3249L9.75567 12.2557L13.089 8.92237L13.1582 8.84404C13.2825 8.6837 13.3441 8.48349 13.3314 8.28097C13.3187 8.07845 13.2325 7.88753 13.089 7.74404Z" fill="white"/>
</svg>
