<svg width="17" height="16" viewBox="0 0 17 16" fill="none" xmlns="http://www.w3.org/2000/svg">
<path d="M11.167 5.33329V3.99996C11.167 3.64634 11.0265 3.3072 10.7765 3.05715C10.5264 2.8071 10.1873 2.66663 9.83366 2.66663H4.50033C4.1467 2.66663 3.80756 2.8071 3.55752 3.05715C3.30747 3.3072 3.16699 3.64634 3.16699 3.99996V9.33329C3.16699 9.68691 3.30747 10.0261 3.55752 10.2761C3.80756 10.5262 4.1467 10.6666 4.50033 10.6666H5.83366M5.83366 6.66663C5.83366 6.313 5.97413 5.97387 6.22418 5.72382C6.47423 5.47377 6.81337 5.33329 7.16699 5.33329H12.5003C12.8539 5.33329 13.1931 5.47377 13.4431 5.72382C13.6932 5.97387 13.8337 6.313 13.8337 6.66663V12C13.8337 12.3536 13.6932 12.6927 13.4431 12.9428C13.1931 13.1928 12.8539 13.3333 12.5003 13.3333H7.16699C6.81337 13.3333 6.47423 13.1928 6.22418 12.9428C5.97413 12.6927 5.83366 12.3536 5.83366 12V6.66663Z" stroke="#525866" stroke-width="1.33333" stroke-linecap="round" stroke-linejoin="round"/>
</svg>
