<svg width="70" height="70" viewBox="0 0 70 70" fill="none" xmlns="http://www.w3.org/2000/svg">
<g clip-path="url(#clip0_8822_13119)">
<circle cx="35" cy="35" r="35" fill="#E84142"/>
<path fill-rule="evenodd" clip-rule="evenodd" d="M37.0942 10.39C35.8816 8.29547 33.9524 8.29547 32.7398 10.39L10.7202 49.1655C9.50757 51.2876 10.4997 52.9687 12.9249 52.9687H23.9761C26.2084 52.8309 28.2202 51.6459 29.4328 49.7718L42.7438 26.7049C43.7084 24.7207 43.7084 22.3781 42.7438 20.3939L38.7753 13.4215L37.0942 10.39ZM51.7285 35.9093C50.5159 33.8149 48.5592 33.8149 47.3466 35.9093L39.6577 49.1652C38.4726 51.2597 39.4648 52.9684 41.8624 52.9684H57.075C59.5002 52.9684 60.4923 51.2597 59.2797 49.1652L51.7285 35.9093Z" fill="white"/>
</g>
<rect x="1.75" y="1.75" width="66.5" height="66.5" rx="33.25" stroke="#1E4E88" stroke-width="3.5"/>
<defs>
<clipPath id="clip0_8822_13119">
<rect width="70" height="70" rx="35" fill="white"/>
</clipPath>
</defs>
</svg>
