<svg width="394" height="70" viewBox="0 0 394 70" fill="none" xmlns="http://www.w3.org/2000/svg">
<g clip-path="url(#clip0_8822_13112)">
<path d="M68.9533 43.4667C64.2788 62.2169 45.2879 73.6279 26.5355 68.9521C7.79094 64.2776 -3.62006 45.2856 1.0565 26.5369C5.72895 7.78467 24.7198 -3.62718 43.4664 1.04732C62.2175 5.72182 73.6278 24.716 68.9528 43.467L68.9531 43.4667H68.9533Z" fill="#F7931A"/>
<path fill-rule="evenodd" clip-rule="evenodd" d="M50.4377 30.0135C51.1343 25.3557 47.5882 22.852 42.7392 21.1818L44.3122 14.8725L40.4716 13.9155L38.9403 20.0587C37.9306 19.8069 36.8937 19.5696 35.8631 19.3343L37.4055 13.1506L33.5673 12.1936L31.9934 18.5009C31.1578 18.3106 30.3372 18.1226 29.541 17.9245L29.5454 17.9047L24.249 16.5821L23.2274 20.6841C23.2274 20.6841 26.0768 21.3373 26.0168 21.3775C27.572 21.7657 27.8533 22.7952 27.8066 23.6113L26.0147 30.7991C26.1218 30.8263 26.2607 30.8656 26.414 30.9272L26.3025 30.8994L26.3024 30.8993C26.2076 30.8756 26.1092 30.851 26.0081 30.8268L23.4965 40.8958C23.3064 41.3684 22.824 42.0775 21.7366 41.8082C21.7751 41.864 18.9452 41.1116 18.9452 41.1116L17.0383 45.5079L22.0363 46.7539C22.5837 46.8911 23.1245 47.0321 23.6599 47.1717L23.66 47.1717C24.0341 47.2692 24.4055 47.366 24.7746 47.4604L23.1853 53.8421L27.0215 54.7991L28.5954 48.4852C29.6434 48.7697 30.6605 49.0321 31.6562 49.2795L30.0876 55.5636L33.9284 56.5206L35.5175 50.1509C42.0667 51.3904 46.9911 50.8907 49.0639 44.967C50.7341 40.1977 48.9808 37.4468 45.5353 35.6529C48.0448 35.0741 49.935 33.4235 50.439 30.014L50.4378 30.0131L50.4377 30.0135ZM41.6633 42.318C40.5743 46.6936 33.7252 44.8846 30.5915 44.057C30.3096 43.9825 30.0578 43.916 29.8429 43.8626L31.9519 35.408C32.2138 35.4734 32.5337 35.5452 32.8962 35.6265L32.8963 35.6266C36.1378 36.354 42.779 37.8444 41.6634 42.318H41.6633ZM33.5459 31.7029C36.1585 32.4002 41.8579 33.9212 42.8505 29.9443H42.8508C43.8644 25.8769 38.3255 24.6506 35.6204 24.0517C35.316 23.9843 35.0476 23.9249 34.8283 23.8702L32.9162 31.5381C33.0968 31.5831 33.3086 31.6396 33.5459 31.7029Z" fill="white"/>
</g>
<rect x="1.75" y="1.75" width="66.5" height="66.5" rx="33.25" stroke="#1E4E88" stroke-width="3.5"/>
<g clip-path="url(#clip1_8822_13112)">
<circle cx="89" cy="35" r="35" fill="#EDF0F4"/>
<path d="M88.9054 14.0002L88.627 14.946V42.387L88.9054 42.6648L101.643 35.1355L88.9054 14.0002Z" fill="#343434"/>
<path d="M88.9049 14.0002L76.167 35.1355L88.9049 42.6648V29.3457V14.0002Z" fill="#8C8C8C"/>
<path d="M88.905 45.0759L88.748 45.2673V55.0422L88.905 55.5003L101.65 37.5505L88.905 45.0759Z" fill="#3C3C3B"/>
<path d="M88.9049 55.5003V45.0759L76.167 37.5505L88.9049 55.5003Z" fill="#8C8C8C"/>
<path d="M88.9048 42.6646L101.642 35.1353L88.9048 29.3455V42.6646Z" fill="#141414"/>
<path d="M76.167 35.1353L88.9049 42.6646V29.3455L76.167 35.1353Z" fill="#393939"/>
</g>
<rect x="55.75" y="1.75" width="66.5" height="66.5" rx="33.25" stroke="#1E4E88" stroke-width="3.5"/>
<g clip-path="url(#clip2_8822_13112)">
<path d="M176.945 43.4667C172.27 62.2169 153.28 73.6279 134.527 68.9521C115.783 64.2776 104.372 45.2856 109.048 26.5369C113.721 7.78467 132.712 -3.62718 151.458 1.04732C170.209 5.72182 181.619 24.716 176.944 43.467L176.945 43.4667H176.945Z" fill="#F3BA2F"/>
<path fill-rule="evenodd" clip-rule="evenodd" d="M143 22.2134L133.937 31.2765L133.937 31.2761L128.664 26.0027L143 11.6667L157.341 26.007L152.068 31.2804L143 22.2134ZM124.94 29.7257L119.667 35L124.94 40.2724L130.213 34.9989L124.94 29.7257ZM133.936 38.7243L142.999 47.7867L152.066 38.72L157.343 43.9905L157.34 43.9933L142.999 58.3334L128.663 43.9974L128.656 43.9899L133.936 38.7243ZM161.059 29.7286L155.786 35.0021L161.059 40.2752L166.333 35.0017L161.059 29.7286Z" fill="white"/>
<path d="M148.349 34.997H148.351L143 29.646L139.045 33.5998L138.591 34.0543L137.654 34.9916L137.646 34.9988L137.654 35.0065L143 40.3536L148.351 35.0026L148.354 34.9996L148.349 34.997" fill="white"/>
</g>
<rect x="109.75" y="1.75" width="66.5" height="66.5" rx="33.25" stroke="#1E4E88" stroke-width="3.5"/>
<g clip-path="url(#clip3_8822_13112)">
<circle cx="197" cy="35" r="35" fill="#E84142"/>
<path fill-rule="evenodd" clip-rule="evenodd" d="M199.094 10.39C197.882 8.29547 195.952 8.29547 194.74 10.39L172.72 49.1655C171.508 51.2876 172.5 52.9687 174.925 52.9687H185.976C188.208 52.8309 190.22 51.6459 191.433 49.7718L204.744 26.7049C205.708 24.7207 205.708 22.3781 204.744 20.3939L200.775 13.4215L199.094 10.39ZM213.729 35.9093C212.516 33.8149 210.559 33.8149 209.347 35.9093L201.658 49.1652C200.473 51.2597 201.465 52.9684 203.862 52.9684H219.075C221.5 52.9684 222.492 51.2597 221.28 49.1652L213.729 35.9093Z" fill="white"/>
</g>
<rect x="163.75" y="1.75" width="66.5" height="66.5" rx="33.25" stroke="#1E4E88" stroke-width="3.5"/>
<g clip-path="url(#clip4_8822_13112)">
<rect x="219" y="3" width="64" height="64" fill="white"/>
<rect x="219" y="3" width="64" height="64"/>
</g>
<rect x="217.75" y="1.75" width="66.5" height="66.5" rx="33.25" stroke="#1E4E88" stroke-width="3.5"/>
<g clip-path="url(#clip5_8822_13112)">
<circle cx="305.291" cy="34.7081" r="31.2083" fill="white"/>
<path fill-rule="evenodd" clip-rule="evenodd" d="M270 35C270 15.67 285.67 0 305 0H305.203C314.459 0.0269319 323.325 3.72956 329.85 10.2933C336.376 16.8571 340.027 25.7444 340 35C340 54.33 324.33 70 305 70C285.67 70 270 54.33 270 35ZM301.949 48.4748L305.593 36.1867L311.271 34.5765L312.458 30.5087L306.865 32.2036L312.797 12.0341V11.7121C312.788 11.4513 312.676 11.2048 312.485 11.0267C312.294 10.8487 312.041 10.7538 311.78 10.7629H304.237C303.65 10.7448 303.126 11.1293 302.966 11.6951L295.932 35.5934L290.339 37.2884L289.068 41.1867L294.661 39.4918L289.661 56.5256H319.492C320.081 56.55 320.609 56.163 320.763 55.5934L322.458 49.746V49.424C322.449 49.1632 322.337 48.9166 322.146 48.7386C321.955 48.5605 321.701 48.4657 321.441 48.4748H301.949Z" fill="#345D9D"/>
</g>
<rect x="271.75" y="1.75" width="66.5" height="66.5" rx="33.25" stroke="#1E4E88" stroke-width="3.5"/>
<g clip-path="url(#clip6_8822_13112)">
<rect x="324" width="70" height="70" rx="35" fill="white"/>
<path d="M359 28V42M352 35H366" stroke="#1E4D87" stroke-width="2" stroke-linecap="round" stroke-linejoin="round"/>
</g>
<rect x="325.75" y="1.75" width="66.5" height="66.5" rx="33.25" stroke="#1E4E88" stroke-width="3.5"/>
<defs>
<clipPath id="clip0_8822_13112">
<rect width="70" height="70" rx="35" fill="white"/>
</clipPath>
<clipPath id="clip1_8822_13112">
<rect x="54" width="70" height="70" rx="35" fill="white"/>
</clipPath>
<clipPath id="clip2_8822_13112">
<rect x="108" width="70" height="70" rx="35" fill="white"/>
</clipPath>
<clipPath id="clip3_8822_13112">
<rect x="162" width="70" height="70" rx="35" fill="white"/>
</clipPath>
<clipPath id="clip4_8822_13112">
<rect x="216" width="70" height="70" rx="35" fill="white"/>
</clipPath>
<clipPath id="clip5_8822_13112">
<rect x="270" width="70" height="70" rx="35" fill="white"/>
</clipPath>
<clipPath id="clip6_8822_13112">
<rect x="324" width="70" height="70" rx="35" fill="white"/>
</clipPath>
</defs>
</svg>
