<svg width="70" height="70" viewBox="0 0 70 70" fill="none" xmlns="http://www.w3.org/2000/svg">
<g clip-path="url(#clip0_8822_13117)">
<path d="M68.945 43.4667C64.2705 62.2169 45.2796 73.6279 26.5272 68.9521C7.78264 64.2776 -3.62836 45.2856 1.0482 26.5369C5.72065 7.78467 24.7115 -3.62718 43.4581 1.04732C62.2092 5.72182 73.6195 24.716 68.9445 43.467L68.9448 43.4667H68.945Z" fill="#F3BA2F"/>
<path fill-rule="evenodd" clip-rule="evenodd" d="M35.0003 22.2134L25.9373 31.2765L25.9375 31.2761L20.6643 26.0027L35.0003 11.6667L49.341 26.007L44.0676 31.2804L35.0003 22.2134ZM16.94 29.7257L11.6665 35L16.9397 40.2724L22.2132 34.9989L16.94 29.7257ZM25.9362 38.7243L34.9992 47.7867L44.0664 38.72L49.3425 43.9905L49.3399 43.9933L34.9992 58.3334L20.6632 43.9974L20.6558 43.9899L25.9362 38.7243ZM53.0594 29.7286L47.7859 35.0021L53.0592 40.2752L58.3326 35.0017L53.0594 29.7286Z" fill="white"/>
<path d="M40.3486 34.997H40.3509L35.0003 29.646L31.0454 33.5998L30.591 34.0543L29.654 34.9916L29.6465 34.9988L29.654 35.0065L35.0003 40.3536L40.3513 35.0026L40.3539 34.9996L40.349 34.997" fill="white"/>
</g>
<rect x="1.75" y="1.75" width="66.5" height="66.5" rx="33.25" stroke="#1E4E88" stroke-width="3.5"/>
<defs>
<clipPath id="clip0_8822_13117">
<rect width="70" height="70" rx="35" fill="white"/>
</clipPath>
</defs>
</svg>
