<svg width="70" height="70" viewBox="0 0 70 70" fill="none" xmlns="http://www.w3.org/2000/svg">
<g clip-path="url(#clip0_8822_13113)">
<path d="M68.9533 43.4667C64.2788 62.2169 45.2879 73.6279 26.5355 68.9521C7.79094 64.2776 -3.62006 45.2856 1.0565 26.5369C5.72895 7.78467 24.7198 -3.62718 43.4664 1.04732C62.2175 5.72182 73.6278 24.716 68.9528 43.467L68.9531 43.4667H68.9533Z" fill="#F7931A"/>
<path fill-rule="evenodd" clip-rule="evenodd" d="M50.4377 30.0135C51.1343 25.3557 47.5882 22.852 42.7392 21.1818L44.3122 14.8725L40.4716 13.9155L38.9403 20.0587C37.9306 19.8069 36.8937 19.5696 35.8631 19.3343L37.4055 13.1506L33.5673 12.1936L31.9934 18.5009C31.1578 18.3106 30.3372 18.1226 29.541 17.9245L29.5454 17.9047L24.249 16.5821L23.2274 20.6841C23.2274 20.6841 26.0768 21.3373 26.0168 21.3775C27.572 21.7657 27.8533 22.7952 27.8066 23.6113L26.0147 30.7991C26.1218 30.8263 26.2607 30.8656 26.414 30.9272L26.3025 30.8994L26.3024 30.8993C26.2076 30.8756 26.1092 30.851 26.0081 30.8268L23.4965 40.8958C23.3064 41.3684 22.824 42.0775 21.7366 41.8082C21.7751 41.864 18.9452 41.1116 18.9452 41.1116L17.0383 45.5079L22.0363 46.7539C22.5837 46.8911 23.1245 47.0321 23.6599 47.1717L23.66 47.1717C24.0341 47.2692 24.4055 47.366 24.7746 47.4604L23.1853 53.8421L27.0215 54.7991L28.5954 48.4852C29.6434 48.7697 30.6605 49.0321 31.6562 49.2795L30.0876 55.5636L33.9284 56.5206L35.5175 50.1509C42.0667 51.3904 46.9911 50.8907 49.0639 44.967C50.7341 40.1977 48.9808 37.4468 45.5353 35.6529C48.0448 35.0741 49.935 33.4235 50.439 30.014L50.4378 30.0131L50.4377 30.0135ZM41.6633 42.318C40.5743 46.6936 33.7252 44.8846 30.5915 44.057C30.3096 43.9825 30.0578 43.916 29.8429 43.8626L31.9519 35.408C32.2138 35.4734 32.5337 35.5452 32.8962 35.6265L32.8963 35.6266C36.1378 36.354 42.779 37.8444 41.6634 42.318H41.6633ZM33.5459 31.7029C36.1585 32.4002 41.8579 33.9212 42.8505 29.9443H42.8508C43.8644 25.8769 38.3255 24.6506 35.6204 24.0517C35.316 23.9843 35.0476 23.9249 34.8283 23.8702L32.9162 31.5381C33.0968 31.5831 33.3086 31.6396 33.5459 31.7029Z" fill="white"/>
</g>
<rect x="1.75" y="1.75" width="66.5" height="66.5" rx="33.25" stroke="#1E4E88" stroke-width="3.5"/>
<defs>
<clipPath id="clip0_8822_13113">
<rect width="70" height="70" rx="35" fill="white"/>
</clipPath>
</defs>
</svg>
