<svg width="70" height="70" viewBox="0 0 70 70" fill="none" xmlns="http://www.w3.org/2000/svg">
<g clip-path="url(#clip0_8822_13123)">
<circle cx="35.2913" cy="34.7081" r="31.2083" fill="white"/>
<path fill-rule="evenodd" clip-rule="evenodd" d="M0 35C0 15.67 15.67 0 34.9999 0H35.2032C44.4588 0.0269319 53.3246 3.72956 59.8502 10.2933C66.3758 16.8571 70.0267 25.7444 69.9997 35C69.9997 54.33 54.3297 70 34.9999 70C15.67 70 0 54.33 0 35ZM31.9493 48.4748L35.5933 36.1867L41.2713 34.5765L42.4577 30.5087L36.8645 32.2036L42.7967 12.0341V11.7121C42.7879 11.4513 42.6757 11.2048 42.485 11.0267C42.2942 10.8487 42.0405 10.7538 41.7798 10.7629H34.2374C33.6499 10.7448 33.1256 11.1293 32.9662 11.6951L25.9324 35.5934L20.3392 37.2884L19.068 41.1867L24.6612 39.4918L19.6612 56.5256H49.4916C50.0811 56.55 50.6088 56.163 50.7628 55.5934L52.4577 49.746V49.424C52.4488 49.1632 52.3367 48.9166 52.1459 48.7386C51.9552 48.5605 51.7015 48.4657 51.4407 48.4748H31.9493Z" fill="#345D9D"/>
</g>
<rect x="1.75" y="1.75" width="66.5" height="66.5" rx="33.25" stroke="#1E4E88" stroke-width="3.5"/>
<defs>
<clipPath id="clip0_8822_13123">
<rect width="70" height="70" rx="35" fill="white"/>
</clipPath>
</defs>
</svg>
