<svg width="70" height="70" viewBox="0 0 70 70" fill="none" xmlns="http://www.w3.org/2000/svg">
<g clip-path="url(#clip0_8822_13115)">
<circle cx="35" cy="35" r="35" fill="#EDF0F4"/>
<path d="M34.9054 14.0002L34.627 14.946V42.387L34.9054 42.6648L47.6429 35.1355L34.9054 14.0002Z" fill="#343434"/>
<path d="M34.9049 14.0002L22.167 35.1355L34.9049 42.6648V29.3457V14.0002Z" fill="#8C8C8C"/>
<path d="M34.905 45.0759L34.748 45.2673V55.0422L34.905 55.5003L47.6503 37.5505L34.905 45.0759Z" fill="#3C3C3B"/>
<path d="M34.9049 55.5003V45.0759L22.167 37.5505L34.9049 55.5003Z" fill="#8C8C8C"/>
<path d="M34.9048 42.6646L47.6423 35.1353L34.9048 29.3455V42.6646Z" fill="#141414"/>
<path d="M22.167 35.1353L34.9049 42.6646V29.3455L22.167 35.1353Z" fill="#393939"/>
</g>
<rect x="1.75" y="1.75" width="66.5" height="66.5" rx="33.25" stroke="#1E4E88" stroke-width="3.5"/>
<defs>
<clipPath id="clip0_8822_13115">
<rect width="70" height="70" rx="35" fill="white"/>
</clipPath>
</defs>
</svg>
