<svg width="18" height="18" viewBox="0 0 18 18" fill="none" xmlns="http://www.w3.org/2000/svg">
<path d="M9 5.99988V15.7499M9 5.99988C8.72871 4.88193 8.26159 3.92614 7.65955 3.25721C7.05752 2.58828 6.34851 2.23723 5.625 2.24984C5.12772 2.24984 4.65081 2.44738 4.29917 2.79901C3.94754 3.15065 3.75 3.62756 3.75 4.12484C3.75 4.62212 3.94754 5.09903 4.29917 5.45066C4.65081 5.8023 5.12772 5.99984 5.625 5.99984M9 5.99988C9.27129 4.88193 9.73841 3.92614 10.3404 3.25721C10.9425 2.58828 11.6515 2.23723 12.375 2.24984C12.8723 2.24984 13.3492 2.44738 13.7008 2.79901C14.0525 3.15065 14.25 3.62756 14.25 4.12484C14.25 4.62212 14.0525 5.09903 13.7008 5.45066C13.3492 5.8023 12.8723 5.99984 12.375 5.99984M14.25 8.99988V14.2499C14.25 14.6477 14.092 15.0292 13.8107 15.3105C13.5294 15.5918 13.1478 15.7499 12.75 15.7499H5.25C4.85218 15.7499 4.47064 15.5918 4.18934 15.3105C3.90804 15.0292 3.75 14.6477 3.75 14.2499V8.99988M2.25 6.74988C2.25 6.55097 2.32902 6.3602 2.46967 6.21955C2.61032 6.0789 2.80109 5.99988 3 5.99988H15C15.1989 5.99988 15.3897 6.0789 15.5303 6.21955C15.671 6.3602 15.75 6.55097 15.75 6.74988V8.24988C15.75 8.44879 15.671 8.63956 15.5303 8.78021C15.3897 8.92086 15.1989 8.99988 15 8.99988H3C2.80109 8.99988 2.61032 8.92086 2.46967 8.78021C2.32902 8.63956 2.25 8.44879 2.25 8.24988V6.74988Z" stroke="#3479FF" stroke-width="1.5" stroke-linecap="round" stroke-linejoin="round"/>
</svg>
