<svg width="485" height="442" viewBox="0 0 485 442" fill="none" xmlns="http://www.w3.org/2000/svg">
<rect y="60" width="485" height="366.665"/>
<path d="M44.4368 66.6881L217.494 66.6285C218.093 66.6285 218.581 67.1049 218.599 67.7L218.599 67.7326L218.599 72.8782C218.599 73.4883 219.093 73.9829 219.704 73.9829H259.787C260.397 73.9829 260.892 73.4883 260.892 72.8782V67.7943C260.892 67.1842 261.386 66.6895 261.997 66.6895H434.671C436.976 66.6895 438.845 68.5581 438.845 70.8632V321.712L40.2632 322.386V70.8632C40.2632 68.5587 42.1323 66.6903 44.4368 66.6881Z" fill="black"/>
<mask id="mask0_40000006_904" style="mask-type:luminance" maskUnits="userSpaceOnUse" x="40" y="66" width="399" height="257">
<path d="M44.4368 66.6881L217.494 66.6285C218.093 66.6285 218.581 67.1049 218.599 67.7L218.599 67.7326L218.599 72.8782C218.599 73.4883 219.093 73.9829 219.704 73.9829H259.787C260.397 73.9829 260.892 73.4883 260.892 72.8782V67.7943C260.892 67.1842 261.386 66.6895 261.997 66.6895H434.671C436.976 66.6895 438.845 68.5581 438.845 70.8632V321.712L40.2632 322.386V70.8632C40.2632 68.5587 42.1323 66.6903 44.4368 66.6881Z" fill="white"/>
</mask>
<g mask="url(#mask0_40000006_904)">
<path fill-rule="evenodd" clip-rule="evenodd" d="M40.1406 66.6283H438.967V321.833L40.1406 322.534V66.6283Z"/>
</g>
<rect x="1" y="216" width="484" height="226" fill="url(#paint0_linear_40000006_904)"/>
<defs>
<linearGradient id="paint0_linear_40000006_904" x1="243" y1="216" x2="243" y2="442" gradientUnits="userSpaceOnUse">
<stop stop-color="#16336B" stop-opacity="0"/>
<stop offset="0.894231" stop-color="#16336B"/>
</linearGradient>
</defs>
</svg>
