<svg width="24" height="24" viewBox="0 0 24 24" fill="none" xmlns="http://www.w3.org/2000/svg">
<path d="M9.00024 15.0002L15.0002 9.00024M11.0002 6.00031L11.4632 5.46431C12.401 4.52663 13.6729 3.99991 14.9991 4C16.3253 4.00009 17.5971 4.527 18.5347 5.46481C19.4724 6.40261 19.9991 7.6745 19.9991 9.00066C19.999 10.3268 19.4721 11.5986 18.5342 12.5363L18.0002 13.0003M13.0001 18.0002L12.6031 18.5342C11.6544 19.4724 10.3739 19.9986 9.03964 19.9986C7.70535 19.9986 6.42489 19.4724 5.47614 18.5342C5.0085 18.0718 4.63724 17.5213 4.38385 16.9144C4.13047 16.3075 4 15.6564 4 14.9987C4 14.3411 4.13047 13.69 4.38385 13.0831C4.63724 12.4762 5.0085 11.9256 5.47614 11.4632L6.00014 11.0002" stroke="#3E7EFF" stroke-width="2" stroke-linecap="round" stroke-linejoin="round"/>
</svg>
