<svg width="20" height="20" viewBox="0 0 20 20" fill="none" xmlns="http://www.w3.org/2000/svg">
<path d="M11.2501 17.5H5.83341C5.39139 17.5 4.96746 17.3244 4.6549 17.0118C4.34234 16.6993 4.16675 16.2754 4.16675 15.8333V10.8333C4.16675 10.3913 4.34234 9.96738 4.6549 9.65482C4.96746 9.34226 5.39139 9.16667 5.83341 9.16667H14.1667C14.4614 9.16651 14.7509 9.24447 15.0056 9.39262C15.2603 9.54077 15.4712 9.7538 15.6167 10.01M6.66675 9.16667V5.83333C6.66675 4.94928 7.01794 4.10143 7.64306 3.47631C8.26818 2.85119 9.11603 2.5 10.0001 2.5C10.8841 2.5 11.732 2.85119 12.3571 3.47631C12.9822 4.10143 13.3334 4.94928 13.3334 5.83333V9.16667M15.8334 13.3333L14.1667 15.8333H17.5001L15.8334 18.3333M9.16675 13.3333C9.16675 13.5543 9.25455 13.7663 9.41083 13.9226C9.56711 14.0789 9.77907 14.1667 10.0001 14.1667C10.2211 14.1667 10.4331 14.0789 10.5893 13.9226C10.7456 13.7663 10.8334 13.5543 10.8334 13.3333C10.8334 13.1123 10.7456 12.9004 10.5893 12.7441C10.4331 12.5878 10.2211 12.5 10.0001 12.5C9.77907 12.5 9.56711 12.5878 9.41083 12.7441C9.25455 12.9004 9.16675 13.1123 9.16675 13.3333Z" stroke="#166644" stroke-width="1.66667" stroke-linecap="round" stroke-linejoin="round"/>
</svg>
