<svg width="146" height="24" viewBox="0 0 146 24" fill="none" xmlns="http://www.w3.org/2000/svg">
<g clip-path="url(#clip0_8956_981)">
<path fill-rule="evenodd" clip-rule="evenodd" d="M1.2002 9V18.6H4.2002C4.51536 18.6 4.82744 18.6621 5.11865 18.7827C5.40979 18.9033 5.67441 19.0801 5.89722 19.303C6.12009 19.5258 6.2969 19.7904 6.41753 20.0816C6.53808 20.3728 6.6002 20.6848 6.6002 21V24H13.8002L22.8002 15V5.4H19.8002C19.485 5.4 19.173 5.33793 18.8817 5.21732C18.5906 5.09671 18.326 4.91992 18.1032 4.69706C17.8803 4.4742 17.7035 4.20961 17.5828 3.91844C17.4623 3.62726 17.4002 3.31518 17.4002 3V0H10.2002L1.2002 9ZM11.4002 18H7.2002V11.4L12.6002 6H16.8002V12.6L11.4002 18Z" fill="url(#paint0_linear_8956_981)"/>
</g>
<path d="M37.1162 18V5.31738H42.0029C44.5693 5.31738 46.3184 7.01367 46.3184 9.55371V9.57129C46.3184 12.1025 44.5693 13.8076 42.0029 13.8076H39.3838V18H37.1162ZM41.4404 7.17188H39.3838V11.9795H41.4404C43.0664 11.9795 44.0156 11.1006 44.0156 9.58008V9.5625C44.0156 8.04199 43.0664 7.17188 41.4404 7.17188ZM54.6402 18.2197C51.4234 18.2197 49.4195 16.3301 49.4195 13.5264V5.31738H51.6871V13.3418C51.6871 15.0996 52.7593 16.251 54.6402 16.251C56.5211 16.251 57.5845 15.0996 57.5845 13.3418V5.31738H59.8433V13.5264C59.8433 16.3301 57.8658 18.2197 54.6402 18.2197ZM63.5333 18V5.31738H68.5958C71.3029 5.31738 72.9552 6.82031 72.9552 9.27246V9.29004C72.9552 10.9951 72.0411 12.375 70.5646 12.9111L73.3331 18H70.7491L68.253 13.2539H65.8009V18H63.5333ZM65.8009 11.4609H68.3585C69.7911 11.4609 70.6349 10.6699 70.6349 9.30762V9.29004C70.6349 7.96289 69.7384 7.1543 68.3146 7.1543H65.8009V11.4609ZM76.2233 18V5.31738H84.4323V7.22461H78.4909V10.6436H84.1071V12.4805H78.4909V16.0928H84.4323V18H76.2233ZM97.3406 18.2197C94.4314 18.2197 92.5154 16.8486 92.366 14.5723L92.3572 14.4404H94.5281L94.5457 14.5459C94.7127 15.6357 95.8289 16.3125 97.4197 16.3125C99.0193 16.3125 100.021 15.6006 100.021 14.5107V14.502C100.021 13.5527 99.3621 13.043 97.7273 12.7002L96.365 12.4189C93.8689 11.9004 92.6385 10.7402 92.6385 8.85059V8.8418C92.6473 6.60938 94.6072 5.09766 97.3406 5.09766C100.109 5.09766 101.92 6.55664 102.052 8.72754L102.06 8.87695H99.8895L99.8719 8.77148C99.7225 7.66406 98.7469 7.00488 97.323 7.00488C95.8377 7.01367 94.9148 7.70801 94.9148 8.71875V8.72754C94.9148 9.62402 95.6092 10.1514 97.1385 10.4678L98.5096 10.749C101.146 11.2939 102.298 12.3662 102.298 14.3438V14.3525C102.298 16.7168 100.434 18.2197 97.3406 18.2197ZM108.009 18L104.608 5.31738H106.963L109.169 14.8887H109.213L111.753 5.31738H113.81L116.35 14.8887H116.394L118.6 5.31738H120.955L117.554 18H115.366L112.808 8.90332H112.755L110.198 18H108.009ZM121.833 18L126.368 5.31738H128.917L133.452 18H131.07L129.998 14.7217H125.278L124.206 18H121.833ZM127.616 7.57617L125.85 12.9727H129.427L127.669 7.57617H127.616ZM136.246 18V5.31738H141.132C143.699 5.31738 145.448 7.01367 145.448 9.55371V9.57129C145.448 12.1025 143.699 13.8076 141.132 13.8076H138.513V18H136.246ZM140.57 7.17188H138.513V11.9795H140.57C142.196 11.9795 143.145 11.1006 143.145 9.58008V9.5625C143.145 8.04199 142.196 7.17188 140.57 7.17188Z" fill="url(#paint1_linear_8956_981)"/>
<defs>
<linearGradient id="paint0_linear_8956_981" x1="12.0002" y1="0" x2="12.0002" y2="24" gradientUnits="userSpaceOnUse">
<stop stop-color="white"/>
<stop offset="1" stop-color="white" stop-opacity="0.7"/>
</linearGradient>
<linearGradient id="paint1_linear_8956_981" x1="91" y1="0" x2="91" y2="24" gradientUnits="userSpaceOnUse">
<stop stop-color="white"/>
<stop offset="1" stop-color="white" stop-opacity="0.7"/>
</linearGradient>
<clipPath id="clip0_8956_981">
<rect width="21.6" height="24" fill="white" transform="translate(1.2002)"/>
</clipPath>
</defs>
</svg>
