<svg width="162" height="32" viewBox="0 0 162 32" fill="none" xmlns="http://www.w3.org/2000/svg">
<g clip-path="url(#clip0_8319_14540)">
<path fill-rule="evenodd" clip-rule="evenodd" d="M1.6001 12V24.8H5.6001C6.02031 24.8 6.43643 24.8828 6.82471 25.0436C7.21289 25.2044 7.56572 25.4401 7.86279 25.7373C8.15996 26.0344 8.39571 26.3872 8.55655 26.7754C8.71728 27.1637 8.8001 27.5798 8.8001 28V32H18.4001L30.4001 20V7.2H26.4001C25.9799 7.2 25.5638 7.11724 25.1755 6.95642C24.7873 6.79561 24.4345 6.55989 24.1374 6.26274C23.8403 5.9656 23.6045 5.61282 23.4436 5.22458C23.2829 4.83635 23.2001 4.42024 23.2001 4V0H13.6001L1.6001 12ZM15.2001 24H9.6001V15.2L16.8001 8H22.4001V16.8L15.2001 24Z" fill="#3E7EFF"/>
</g>
<path d="M45.7216 24.5V7.04545H52.267C53.608 7.04545 54.733 7.29545 55.642 7.79545C56.5568 8.29545 57.2472 8.98295 57.7131 9.85795C58.1847 10.7273 58.4205 11.7159 58.4205 12.8239C58.4205 13.9432 58.1847 14.9375 57.7131 15.8068C57.2415 16.6761 56.5455 17.3608 55.625 17.8608C54.7045 18.3551 53.571 18.6023 52.2244 18.6023H47.8864V16.0028H51.7983C52.5824 16.0028 53.2244 15.8665 53.7244 15.5938C54.2244 15.321 54.5938 14.946 54.8324 14.4688C55.0767 13.9915 55.1989 13.4432 55.1989 12.8239C55.1989 12.2045 55.0767 11.6591 54.8324 11.1875C54.5938 10.7159 54.2216 10.3494 53.7159 10.0881C53.2159 9.82102 52.571 9.6875 51.7812 9.6875H48.8835V24.5H45.7216ZM68.6543 18.9943V11.4091H71.7395V24.5H68.748V22.1733H68.6117C68.3162 22.9062 67.8304 23.5057 67.1543 23.9716C66.4838 24.4375 65.6571 24.6705 64.6742 24.6705C63.8162 24.6705 63.0577 24.4801 62.3986 24.0994C61.7452 23.7131 61.2338 23.1534 60.8645 22.4205C60.4952 21.6818 60.3105 20.7898 60.3105 19.7443V11.4091H63.3958V19.267C63.3958 20.0966 63.623 20.7557 64.0776 21.2443C64.5321 21.733 65.1287 21.9773 65.8674 21.9773C66.3219 21.9773 66.7622 21.8665 67.1884 21.6449C67.6145 21.4233 67.9639 21.0938 68.2367 20.6562C68.5151 20.2131 68.6543 19.6591 68.6543 18.9943ZM74.1921 24.5V11.4091H77.1836V13.5909H77.3199C77.5586 12.8352 77.9677 12.2528 78.5472 11.8438C79.1324 11.429 79.8001 11.2216 80.5501 11.2216C80.7205 11.2216 80.9109 11.2301 81.1211 11.2472C81.337 11.2585 81.516 11.2784 81.658 11.3068V14.1449C81.5273 14.0994 81.3199 14.0597 81.0359 14.0256C80.7574 13.9858 80.4876 13.9659 80.2262 13.9659C79.6637 13.9659 79.158 14.0881 78.7091 14.3324C78.266 14.571 77.9165 14.9034 77.6609 15.3295C77.4052 15.7557 77.2773 16.2472 77.2773 16.804V24.5H74.1921ZM88.2441 24.7557C86.9316 24.7557 85.7981 24.483 84.8436 23.9375C83.8947 23.3864 83.1646 22.608 82.6532 21.6023C82.1418 20.5909 81.8862 19.4006 81.8862 18.0312C81.8862 16.6847 82.1418 15.5028 82.6532 14.4858C83.1703 13.4631 83.8918 12.6676 84.818 12.0994C85.7441 11.5256 86.8322 11.2386 88.0822 11.2386C88.889 11.2386 89.6504 11.3693 90.3663 11.6307C91.0879 11.8864 91.7242 12.2841 92.2754 12.8239C92.8322 13.3636 93.2697 14.0511 93.5879 14.8864C93.9061 15.7159 94.0651 16.7045 94.0651 17.8523V18.7983H83.335V16.7188H91.1078C91.1021 16.1278 90.9742 15.6023 90.7242 15.142C90.4742 14.6761 90.1248 14.3097 89.6759 14.0426C89.2328 13.7756 88.7157 13.642 88.1248 13.642C87.4941 13.642 86.9401 13.7955 86.4629 14.1023C85.9856 14.4034 85.6134 14.8011 85.3464 15.2955C85.085 15.7841 84.9515 16.321 84.9458 16.9062V18.7216C84.9458 19.483 85.085 20.1364 85.3634 20.6818C85.6418 21.2216 86.0311 21.6364 86.5311 21.9261C87.0311 22.2102 87.6163 22.3523 88.2867 22.3523C88.7356 22.3523 89.1418 22.2898 89.5055 22.1648C89.8691 22.0341 90.1845 21.8438 90.4515 21.5938C90.7186 21.3438 90.9203 21.0341 91.0566 20.6648L93.9373 20.9886C93.7555 21.75 93.4089 22.4148 92.8975 22.983C92.3918 23.5455 91.7441 23.983 90.9543 24.2955C90.1646 24.6023 89.2612 24.7557 88.2441 24.7557ZM110.811 11.8438C110.731 11.0994 110.396 10.5199 109.805 10.1051C109.22 9.69034 108.458 9.48295 107.521 9.48295C106.862 9.48295 106.296 9.58239 105.825 9.78125C105.353 9.98011 104.992 10.25 104.742 10.5909C104.492 10.9318 104.364 11.321 104.359 11.7585C104.359 12.1222 104.441 12.4375 104.606 12.7045C104.776 12.9716 105.007 13.1989 105.296 13.3864C105.586 13.5682 105.907 13.7216 106.259 13.8466C106.612 13.9716 106.967 14.0767 107.325 14.1619L108.961 14.571C109.62 14.7244 110.254 14.9318 110.862 15.1932C111.475 15.4545 112.024 15.7841 112.507 16.1818C112.995 16.5795 113.382 17.0597 113.666 17.6222C113.95 18.1847 114.092 18.8437 114.092 19.5994C114.092 20.6222 113.83 21.5227 113.308 22.3011C112.785 23.0739 112.029 23.679 111.041 24.1165C110.058 24.5483 108.867 24.7642 107.47 24.7642C106.112 24.7642 104.933 24.554 103.933 24.1335C102.938 23.7131 102.16 23.0994 101.597 22.2926C101.041 21.4858 100.739 20.5028 100.694 19.3438H103.805C103.85 19.9517 104.038 20.4574 104.367 20.8608C104.697 21.2642 105.126 21.5653 105.654 21.7642C106.188 21.9631 106.785 22.0625 107.444 22.0625C108.132 22.0625 108.734 21.9602 109.251 21.7557C109.774 21.5455 110.183 21.2557 110.478 20.8864C110.774 20.5114 110.924 20.0739 110.93 19.5739C110.924 19.1193 110.791 18.7443 110.529 18.4489C110.268 18.1477 109.901 17.8977 109.43 17.6989C108.964 17.4943 108.418 17.3125 107.793 17.1534L105.808 16.642C104.37 16.2727 103.234 15.7131 102.399 14.9631C101.569 14.2074 101.154 13.2045 101.154 11.9545C101.154 10.9261 101.433 10.0256 101.989 9.25284C102.552 8.48011 103.316 7.88068 104.282 7.45454C105.248 7.02273 106.342 6.80682 107.563 6.80682C108.802 6.80682 109.887 7.02273 110.819 7.45454C111.757 7.88068 112.492 8.47443 113.026 9.23579C113.561 9.99148 113.836 10.8608 113.853 11.8438H110.811ZM118.756 24.5L115.057 11.4091H118.202L120.503 20.6136H120.622L122.975 11.4091H126.086L128.438 20.5625H128.566L130.833 11.4091H133.986L130.279 24.5H127.066L124.611 15.6534H124.432L121.978 24.5H118.756ZM139.187 24.7642C138.358 24.7642 137.611 24.6165 136.946 24.321C136.287 24.0199 135.764 23.5767 135.378 22.9915C134.997 22.4062 134.807 21.6847 134.807 20.8267C134.807 20.0881 134.943 19.4773 135.216 18.9943C135.488 18.5114 135.861 18.125 136.332 17.8352C136.804 17.5455 137.335 17.3267 137.926 17.179C138.522 17.0256 139.139 16.9148 139.775 16.8466C140.542 16.767 141.165 16.696 141.642 16.6335C142.119 16.5653 142.466 16.4631 142.682 16.3267C142.903 16.1847 143.014 15.9659 143.014 15.6705V15.6193C143.014 14.9773 142.824 14.4801 142.443 14.1278C142.062 13.7756 141.514 13.5994 140.798 13.5994C140.042 13.5994 139.443 13.7642 139 14.0938C138.562 14.4233 138.267 14.8125 138.113 15.2614L135.233 14.8523C135.46 14.0568 135.835 13.392 136.358 12.858C136.88 12.3182 137.52 11.9148 138.275 11.6477C139.031 11.375 139.866 11.2386 140.781 11.2386C141.412 11.2386 142.04 11.3125 142.665 11.4602C143.29 11.608 143.861 11.8523 144.378 12.1932C144.895 12.5284 145.309 12.9858 145.622 13.5653C145.94 14.1449 146.099 14.8693 146.099 15.7386V24.5H143.133V22.7017H143.031C142.844 23.0653 142.579 23.4062 142.238 23.7244C141.903 24.0369 141.48 24.2898 140.969 24.483C140.463 24.6705 139.869 24.7642 139.187 24.7642ZM139.988 22.4972C140.608 22.4972 141.145 22.375 141.599 22.1307C142.054 21.8807 142.403 21.5511 142.647 21.142C142.897 20.733 143.022 20.2869 143.022 19.804V18.2614C142.926 18.3409 142.761 18.4148 142.528 18.483C142.301 18.5511 142.045 18.6108 141.761 18.6619C141.477 18.7131 141.196 18.7585 140.917 18.7983C140.639 18.8381 140.397 18.8722 140.193 18.9006C139.733 18.9631 139.321 19.0653 138.957 19.2074C138.594 19.3494 138.307 19.5483 138.096 19.804C137.886 20.054 137.781 20.3778 137.781 20.7756C137.781 21.3438 137.988 21.7727 138.403 22.0625C138.818 22.3523 139.346 22.4972 139.988 22.4972ZM148.481 29.4091V11.4091H151.516V13.5739H151.695C151.854 13.2557 152.078 12.9176 152.368 12.5597C152.658 12.196 153.05 11.8864 153.544 11.6307C154.038 11.3693 154.669 11.2386 155.436 11.2386C156.447 11.2386 157.359 11.4972 158.172 12.0142C158.99 12.5256 159.638 13.2841 160.115 14.2898C160.598 15.2898 160.839 16.517 160.839 17.9716C160.839 19.4091 160.604 20.6307 160.132 21.6364C159.66 22.642 159.018 23.4091 158.206 23.9375C157.393 24.4659 156.473 24.7301 155.445 24.7301C154.695 24.7301 154.072 24.6051 153.578 24.3551C153.084 24.1051 152.686 23.804 152.385 23.4517C152.089 23.0937 151.859 22.7557 151.695 22.4375H151.567V29.4091H148.481ZM151.507 17.9545C151.507 18.8011 151.626 19.5426 151.865 20.179C152.109 20.8153 152.459 21.3125 152.913 21.6705C153.374 22.0227 153.93 22.1989 154.584 22.1989C155.266 22.1989 155.837 22.017 156.297 21.6534C156.757 21.2841 157.104 20.7812 157.337 20.1449C157.575 19.5028 157.695 18.7727 157.695 17.9545C157.695 17.142 157.578 16.4205 157.345 15.7898C157.112 15.1591 156.766 14.6648 156.305 14.3068C155.845 13.9489 155.271 13.7699 154.584 13.7699C153.925 13.7699 153.365 13.9432 152.905 14.2898C152.445 14.6364 152.095 15.1222 151.856 15.7472C151.624 16.3722 151.507 17.108 151.507 17.9545Z" fill="#1A1A1A"/>
<defs>
<clipPath id="clip0_8319_14540">
<rect width="28.8" height="32" fill="white" transform="translate(1.6001)"/>
</clipPath>
</defs>
</svg>
