<svg width="24" height="24" viewBox="0 0 24 24" fill="none" xmlns="http://www.w3.org/2000/svg">
<path d="M5 7C4.46957 7 3.96086 6.78929 3.58579 6.41421C3.21071 6.03914 3 5.53043 3 5C3 4.46957 3.21071 3.96086 3.58579 3.58579C3.96086 3.21071 4.46957 3 5 3C5.53043 3 6.03914 3.21071 6.41421 3.58579C6.78929 3.96086 7 4.46957 7 5M5 7C5.53043 7 6.03914 6.78929 6.41421 6.41421C6.78929 6.03914 7 5.53043 7 5M5 7V17M7 5H17M17 5C17 5.53043 17.2107 6.03914 17.5858 6.41421C17.9609 6.78929 18.4696 7 19 7M17 5C17 4.46957 17.2107 3.96086 17.5858 3.58579C17.9609 3.21071 18.4696 3 19 3C19.5304 3 20.0391 3.21071 20.4142 3.58579C20.7893 3.96086 21 4.46957 21 5C21 5.53043 20.7893 6.03914 20.4142 6.41421C20.0391 6.78929 19.5304 7 19 7M19 7V17M7 19C7 19.5304 6.78929 20.0391 6.41421 20.4142C6.03914 20.7893 5.53043 21 5 21C4.46957 21 3.96086 20.7893 3.58579 20.4142C3.21071 20.0391 3 19.5304 3 19C3 18.4696 3.21071 17.9609 3.58579 17.5858C3.96086 17.2107 4.46957 17 5 17M7 19C7 18.4696 6.78929 17.9609 6.41421 17.5858C6.03914 17.2107 5.53043 17 5 17M7 19H17M17 19C17 19.5304 17.2107 20.0391 17.5858 20.4142C17.9609 20.7893 18.4696 21 19 21C19.5304 21 20.0391 20.7893 20.4142 20.4142C20.7893 20.0391 21 19.5304 21 19C21 18.4696 20.7893 17.9609 20.4142 17.5858C20.0391 17.2107 19.5304 17 19 17M17 19C17 18.4696 17.2107 17.9609 17.5858 17.5858C17.9609 17.2107 18.4696 17 19 17" stroke="#3E7EFF" stroke-width="2" stroke-linecap="round" stroke-linejoin="round"/>
</svg>
