<svg width="21" height="20" viewBox="0 0 21 20" fill="none" xmlns="http://www.w3.org/2000/svg">
<g clip-path="url(#clip0_8353_14398)">
<path d="M20.1018 5.15508C19.9888 4.72959 19.7659 4.34126 19.4556 4.02896C19.1453 3.71665 18.7584 3.49133 18.3337 3.37553C16.77 2.95508 10.52 2.95508 10.52 2.95508C10.52 2.95508 4.27002 2.95508 2.70638 3.37553C2.28163 3.49133 1.89474 3.71665 1.58443 4.02896C1.27412 4.34126 1.05127 4.72959 0.938201 5.15508C0.52002 6.72553 0.52002 10.0005 0.52002 10.0005C0.52002 10.0005 0.52002 13.2755 0.938201 14.846C1.05127 15.2715 1.27412 15.6598 1.58443 15.9721C1.89474 16.2844 2.28163 16.5097 2.70638 16.6255C4.27002 17.046 10.52 17.046 10.52 17.046C10.52 17.046 16.77 17.046 18.3337 16.6255C18.7584 16.5097 19.1453 16.2844 19.4556 15.9721C19.7659 15.6598 19.9888 15.2715 20.1018 14.846C20.52 13.2755 20.52 10.0005 20.52 10.0005C20.52 10.0005 20.52 6.72553 20.1018 5.15508Z" fill="#FF0302"/>
<path d="M8.47461 12.9741V7.02637L13.7019 10.0002L8.47461 12.9741Z" fill="#FEFEFE"/>
</g>
<defs>
<clipPath id="clip0_8353_14398">
<rect width="20" height="20" fill="white" transform="translate(0.5)"/>
</clipPath>
</defs>
</svg>
