<svg width="20" height="20" viewBox="0 0 20 20" fill="none" xmlns="http://www.w3.org/2000/svg">
<g clip-path="url(#clip0_8353_14455)">
<path d="M10 20C15.5228 20 20 15.5228 20 10C20 4.47715 15.5228 0 10 0C4.47715 0 0 4.47715 0 10C0 15.5228 4.47715 20 10 20Z" fill="url(#paint0_linear_8353_14455)"/>
<path fill-rule="evenodd" clip-rule="evenodd" d="M4.52684 9.89494C7.44204 8.62484 9.38597 7.78751 10.3586 7.38295C13.1357 6.22786 13.7128 6.0272 14.0889 6.02058C14.1716 6.01912 14.3566 6.03962 14.4764 6.13684C14.5776 6.21893 14.6054 6.32982 14.6187 6.40765C14.632 6.48548 14.6486 6.66278 14.6354 6.80132C14.485 8.38255 13.8338 12.2198 13.5025 13.9908C13.3623 14.7402 13.0863 14.9914 12.8191 15.016C12.2384 15.0695 11.7974 14.6323 11.2349 14.2636C10.3548 13.6866 9.85759 13.3275 9.00328 12.7645C8.01596 12.1139 8.656 11.7563 9.21866 11.1719C9.36592 11.0189 11.9246 8.69163 11.9741 8.48051C11.9803 8.45411 11.986 8.35568 11.9276 8.30371C11.8691 8.25174 11.7828 8.26951 11.7205 8.28365C11.6322 8.30368 10.2262 9.23301 7.50246 11.0716C7.10337 11.3457 6.74188 11.4792 6.418 11.4722C6.06095 11.4645 5.37413 11.2703 4.86355 11.1043C4.23729 10.9008 3.73956 10.7932 3.7829 10.4474C3.80548 10.2674 4.05346 10.0832 4.52684 9.89494Z" fill="white"/>
</g>
<defs>
<linearGradient id="paint0_linear_8353_14455" x1="10" y1="0" x2="10" y2="19.8517" gradientUnits="userSpaceOnUse">
<stop stop-color="#2AABEE"/>
<stop offset="1" stop-color="#229ED9"/>
</linearGradient>
<clipPath id="clip0_8353_14455">
<rect width="20" height="20" fill="white"/>
</clipPath>
</defs>
</svg>
