<svg width="21" height="20" viewBox="0 0 21 20" fill="none" xmlns="http://www.w3.org/2000/svg">
<g clip-path="url(#clip0_8353_14448)">
<path d="M17.4308 3.4629C16.1561 2.87799 14.7892 2.44707 13.3599 2.20025C13.3339 2.19549 13.3079 2.20739 13.2945 2.2312C13.1187 2.54388 12.9239 2.9518 12.7876 3.27242C11.2503 3.04228 9.72099 3.04228 8.21527 3.27242C8.07887 2.94467 7.87707 2.54388 7.70048 2.2312C7.68707 2.20819 7.66107 2.19629 7.63504 2.20025C6.20659 2.44628 4.83963 2.87721 3.56411 3.4629C3.55307 3.46766 3.54361 3.4756 3.53732 3.48591C0.944493 7.35954 0.234208 11.138 0.58265 14.8695C0.584227 14.8878 0.594475 14.9053 0.608665 14.9164C2.31934 16.1726 3.97642 16.9353 5.60273 17.4408C5.62876 17.4488 5.65634 17.4393 5.6729 17.4178C6.05761 16.8925 6.40053 16.3385 6.69456 15.756C6.71192 15.7219 6.69535 15.6814 6.65989 15.6679C6.11594 15.4616 5.598 15.21 5.09977 14.9243C5.06037 14.9013 5.05721 14.8449 5.09346 14.8179C5.19831 14.7394 5.30318 14.6576 5.4033 14.5751C5.42141 14.56 5.44665 14.5568 5.46794 14.5664C8.74107 16.0608 12.2846 16.0608 15.5191 14.5664C15.5404 14.5561 15.5657 14.5592 15.5846 14.5743C15.6847 14.6568 15.7895 14.7394 15.8952 14.8179C15.9314 14.8449 15.9291 14.9013 15.8897 14.9243C15.3914 15.2155 14.8735 15.4616 14.3288 15.6671C14.2933 15.6806 14.2775 15.7219 14.2949 15.756C14.5952 16.3377 14.9381 16.8917 15.3157 17.417C15.3315 17.4393 15.3599 17.4488 15.3859 17.4408C17.0201 16.9353 18.6772 16.1726 20.3879 14.9164C20.4028 14.9053 20.4123 14.8886 20.4139 14.8703C20.8309 10.5562 19.7154 6.80878 17.4568 3.4867C17.4513 3.4756 17.4419 3.46766 17.4308 3.4629ZM7.18335 12.5974C6.19792 12.5974 5.38594 11.6927 5.38594 10.5816C5.38594 9.47056 6.18217 8.56585 7.18335 8.56585C8.19239 8.56585 8.99651 9.4785 8.98073 10.5816C8.98073 11.6927 8.18451 12.5974 7.18335 12.5974ZM13.829 12.5974C12.8435 12.5974 12.0316 11.6927 12.0316 10.5816C12.0316 9.47056 12.8278 8.56585 13.829 8.56585C14.838 8.56585 15.6421 9.4785 15.6264 10.5816C15.6264 11.6927 14.838 12.5974 13.829 12.5974Z" fill="#5865F2"/>
</g>
<defs>
<clipPath id="clip0_8353_14448">
<rect width="20" height="20" fill="white" transform="translate(0.5)"/>
</clipPath>
</defs>
</svg>
