<svg width="33" height="33" viewBox="0 0 33 33" fill="none" xmlns="http://www.w3.org/2000/svg">
<g clip-path="url(#clip0_8681_30818)">
<path d="M16.5 32.5C25.3366 32.5 32.5 25.3366 32.5 16.5C32.5 7.66344 25.3366 0.5 16.5 0.5C7.66344 0.5 0.5 7.66344 0.5 16.5C0.5 25.3366 7.66344 32.5 16.5 32.5Z" fill="url(#paint0_linear_8681_30818)"/>
<path fill-rule="evenodd" clip-rule="evenodd" d="M7.74236 16.3311C12.4067 14.2989 15.517 12.9592 17.0732 12.3119C21.5166 10.4637 22.4399 10.1427 23.0417 10.1321C23.174 10.1297 23.47 10.1625 23.6617 10.3181C23.8235 10.4494 23.8681 10.6269 23.8894 10.7514C23.9107 10.8759 23.9372 11.1596 23.9161 11.3813C23.6753 13.9112 22.6335 20.0508 22.1034 22.8844C21.8791 24.0834 21.4375 24.4855 21.01 24.5248C20.0808 24.6103 19.3752 23.9108 18.4753 23.3208C17.0671 22.3977 16.2716 21.8231 14.9047 20.9223C13.325 19.8813 14.349 19.3092 15.2493 18.3741C15.4849 18.1294 19.5787 14.4058 19.658 14.068C19.6679 14.0257 19.6771 13.8682 19.5835 13.7851C19.49 13.7019 19.3519 13.7304 19.2523 13.753C19.111 13.785 16.8614 15.272 12.5034 18.2137C11.8648 18.6522 11.2864 18.8659 10.7682 18.8547C10.1969 18.8423 9.09802 18.5317 8.28109 18.2661C7.27909 17.9404 6.48272 17.7682 6.55206 17.215C6.58818 16.9269 6.98495 16.6323 7.74236 16.3311Z" fill="white"/>
</g>
<defs>
<linearGradient id="paint0_linear_8681_30818" x1="16.5" y1="0.5" x2="16.5" y2="32.2627" gradientUnits="userSpaceOnUse">
<stop stop-color="#2AABEE"/>
<stop offset="1" stop-color="#229ED9"/>
</linearGradient>
<clipPath id="clip0_8681_30818">
<rect width="32" height="32" fill="white" transform="translate(0.5 0.5)"/>
</clipPath>
</defs>
</svg>
