<svg width="20" height="20" viewBox="0 0 20 20" fill="none" xmlns="http://www.w3.org/2000/svg">
<path d="M5 17.5V15.8333C5 14.9493 5.35119 14.1014 5.97631 13.4763C6.60143 12.8512 7.44928 12.5 8.33333 12.5H8.75M6.66667 5.83333C6.66667 6.71739 7.01786 7.56523 7.64298 8.19036C8.2681 8.81548 9.11594 9.16667 10 9.16667C10.8841 9.16667 11.7319 8.81548 12.357 8.19036C12.9821 7.56523 13.3333 6.71739 13.3333 5.83333C13.3333 4.94928 12.9821 4.10143 12.357 3.47631C11.7319 2.85119 10.8841 2.5 10 2.5C9.11594 2.5 8.2681 2.85119 7.64298 3.47631C7.01786 4.10143 6.66667 4.94928 6.66667 5.83333ZM14.8333 17.3475L13.0233 18.2958C12.9696 18.3238 12.9092 18.3362 12.8488 18.3318C12.7884 18.3275 12.7304 18.3064 12.6813 18.2709C12.6322 18.2355 12.5939 18.1871 12.5708 18.1311C12.5476 18.0752 12.5404 18.0139 12.55 17.9541L12.8958 15.945L11.4317 14.5225C11.388 14.4802 11.357 14.4265 11.3424 14.3676C11.3277 14.3086 11.3299 14.2466 11.3488 14.1889C11.3677 14.1311 11.4024 14.0797 11.449 14.0407C11.4956 14.0018 11.5523 13.9767 11.6125 13.9683L13.6358 13.675L14.5408 11.8475C14.5679 11.793 14.6096 11.7473 14.6613 11.7152C14.713 11.6832 14.7725 11.6663 14.8333 11.6663C14.8941 11.6663 14.9537 11.6832 15.0054 11.7152C15.057 11.7473 15.0988 11.793 15.1258 11.8475L16.0308 13.675L18.0542 13.9683C18.1142 13.9769 18.1706 14.0022 18.217 14.0412C18.2635 14.0803 18.298 14.1315 18.3169 14.1892C18.3357 14.2468 18.338 14.3086 18.3235 14.3675C18.309 14.4264 18.2784 14.4801 18.235 14.5225L16.7708 15.945L17.1158 17.9533C17.1262 18.0132 17.1195 18.0748 17.0966 18.1311C17.0738 18.1874 17.0355 18.2362 16.9863 18.2718C16.9371 18.3075 16.8789 18.3286 16.8183 18.3329C16.7576 18.3371 16.697 18.3243 16.6433 18.2958L14.8333 17.3475Z" stroke="#6B5848" stroke-width="1.66667" stroke-linecap="round" stroke-linejoin="round"/>
</svg>
