<svg width="18" height="18" viewBox="0 0 18 18" fill="none" xmlns="http://www.w3.org/2000/svg">
<path d="M4.5 15.75V14.25C4.5 13.4544 4.81607 12.6913 5.37868 12.1287C5.94129 11.5661 6.70435 11.25 7.5 11.25H8.625M15.1501 15.15L16.5001 16.5M6 5.25C6 6.04565 6.31607 6.80871 6.87868 7.37132C7.44129 7.93393 8.20435 8.25 9 8.25C9.79565 8.25 10.5587 7.93393 11.1213 7.37132C11.6839 6.80871 12 6.04565 12 5.25C12 4.45435 11.6839 3.69129 11.1213 3.12868C10.5587 2.56607 9.79565 2.25 9 2.25C8.20435 2.25 7.44129 2.56607 6.87868 3.12868C6.31607 3.69129 6 4.45435 6 5.25ZM11.25 13.5C11.25 14.0967 11.4871 14.669 11.909 15.091C12.331 15.5129 12.9033 15.75 13.5 15.75C14.0967 15.75 14.669 15.5129 15.091 15.091C15.5129 14.669 15.75 14.0967 15.75 13.5C15.75 12.9033 15.5129 12.331 15.091 11.909C14.669 11.4871 14.0967 11.25 13.5 11.25C12.9033 11.25 12.331 11.4871 11.909 11.909C11.4871 12.331 11.25 12.9033 11.25 13.5Z" stroke="#3479FF" stroke-width="1.5" stroke-linecap="round" stroke-linejoin="round"/>
</svg>
