<svg width="32" height="32" viewBox="0 0 32 32" fill="none" xmlns="http://www.w3.org/2000/svg">
<rect width="32" height="32" rx="16" fill="#F6F8FA"/>
<path d="M12 22V20.6667C12 19.9594 12.281 19.2811 12.781 18.781C13.2811 18.281 13.9594 18 14.6667 18H17.3333C18.0406 18 18.7189 18.281 19.219 18.781C19.719 19.2811 20 19.9594 20 20.6667V22M13.3333 12.6667C13.3333 13.3739 13.6143 14.0522 14.1144 14.5523C14.6145 15.0524 15.2928 15.3333 16 15.3333C16.7072 15.3333 17.3855 15.0524 17.8856 14.5523C18.3857 14.0522 18.6667 13.3739 18.6667 12.6667C18.6667 11.9594 18.3857 11.2811 17.8856 10.781C17.3855 10.281 16.7072 10 16 10C15.2928 10 14.6145 10.281 14.1144 10.781C13.6143 11.2811 13.3333 11.9594 13.3333 12.6667Z" stroke="#0A0D14" stroke-width="1.33333" stroke-linecap="round" stroke-linejoin="round"/>
</svg>
