<svg width="16" height="16" viewBox="0 0 16 16" fill="none" xmlns="http://www.w3.org/2000/svg">
<path d="M7.95992 1.33398C8.28069 1.33421 8.59667 1.41183 8.88102 1.56028C9.16537 1.70872 9.4097 1.92359 9.59326 2.18665L9.66525 2.29598L15.2859 11.6787C15.4543 11.9707 15.5459 12.3006 15.5521 12.6376C15.5583 12.9747 15.4789 13.3078 15.3213 13.6058C15.1637 13.9038 14.9331 14.1569 14.6511 14.3415C14.369 14.5261 14.0447 14.6361 13.7086 14.6613L13.5753 14.6673H2.33792C2.00138 14.6633 1.67134 14.5741 1.37856 14.4081C1.08578 14.2421 0.839806 14.0047 0.663562 13.7179C0.487317 13.4312 0.386544 13.1045 0.370636 12.7683C0.354729 12.4322 0.424205 12.0974 0.572588 11.7953L0.639921 11.6693L6.25659 2.29265C6.43424 1.99999 6.68429 1.75804 6.98264 1.59013C7.28099 1.42221 7.61757 1.334 7.95992 1.33398ZM8.00659 10.6673L7.92192 10.672C7.75989 10.6913 7.61055 10.7693 7.5022 10.8913C7.39384 11.0133 7.334 11.1708 7.334 11.334C7.334 11.4972 7.39384 11.6547 7.5022 11.7767C7.61055 11.8987 7.75989 11.9767 7.92192 11.996L7.99992 12.0007L8.08459 11.996C8.24662 11.9767 8.39596 11.8987 8.50431 11.7767C8.61267 11.6547 8.67251 11.4972 8.67251 11.334C8.67251 11.1708 8.61267 11.0133 8.50431 10.8913C8.39596 10.7693 8.24662 10.6913 8.08459 10.672L8.00659 10.6673ZM7.99992 5.33398C7.83663 5.33401 7.67903 5.39396 7.55701 5.50246C7.43498 5.61097 7.35703 5.76048 7.33792 5.92265L7.33325 6.00065V8.66732L7.33792 8.74532C7.35719 8.90735 7.43523 9.05669 7.55723 9.16504C7.67924 9.2734 7.83675 9.33324 7.99992 9.33324C8.1631 9.33324 8.3206 9.2734 8.44261 9.16504C8.56462 9.05669 8.64265 8.90735 8.66192 8.74532L8.66659 8.66732V6.00065L8.66192 5.92265C8.64282 5.76048 8.56486 5.61097 8.44284 5.50246C8.32081 5.39396 8.16321 5.33401 7.99992 5.33398Z" fill="#EF4444"/>
</svg>
