<svg width="19" height="18" viewBox="0 0 19 18" fill="none" xmlns="http://www.w3.org/2000/svg">
<path d="M18.1306 11.1771C16.9286 15.9986 12.0452 18.9329 7.22313 17.7306C2.4031 16.5285 -0.531151 11.6449 0.671392 6.82378C1.87288 2.00177 6.75625 -0.932704 11.5768 0.269311C16.3985 1.47133 19.3326 6.35553 18.1304 11.1772L18.1305 11.1771H18.1306Z" fill="#F7931A"/>
<path d="M10.0183 3.38184L9.62183 4.97168C9.88677 5.03215 10.1533 5.09346 10.4128 5.1582L10.8064 3.57812L11.7947 3.82422L11.3894 5.44727C12.5584 5.84993 13.4333 6.44071 13.3904 7.5L13.3699 7.71777C13.2403 8.59436 12.7543 9.01907 12.1091 9.16797C12.995 9.62926 13.4458 10.3372 13.0164 11.5635C12.4833 13.0865 11.2169 13.2151 9.53296 12.8965L9.12378 14.5342L8.13647 14.2881L8.53979 12.6719C8.28381 12.6083 8.02213 12.5409 7.75269 12.4678L7.34839 14.0918L6.36206 13.8457L6.77026 12.2041C6.53957 12.1451 6.30521 12.0824 6.06616 12.0225L4.78101 11.7021L5.27124 10.5723C5.27683 10.5738 5.99887 10.7653 5.98901 10.751C6.26856 10.8202 6.39324 10.6381 6.44214 10.5166L7.08765 7.92676C7.12401 7.93546 7.1592 7.94495 7.19214 7.95312C7.15288 7.93735 7.11709 7.92691 7.0896 7.91992L7.54956 6.07129C7.56146 5.86151 7.48927 5.59682 7.0896 5.49707C7.1043 5.48676 6.39163 5.32365 6.3728 5.31934L6.6355 4.26465L7.99683 4.60449L7.99585 4.60938C8.20058 4.66032 8.41186 4.70889 8.62671 4.75781L9.03101 3.13574L10.0183 3.38184ZM8.073 11.2793C8.72146 11.4403 10.6793 12.0676 11.0789 10.9922L11.113 10.8828C11.432 9.60389 9.28552 9.2726 8.61597 9.10547L8.073 11.2793ZM8.86401 8.11035C9.40424 8.24503 11.0343 8.7811 11.3884 7.7998L11.4187 7.7002C11.7083 6.53686 9.91268 6.27763 9.35522 6.13867L8.86401 8.11035Z" fill="white"/>
</svg>
