<svg width="19" height="18" viewBox="0 0 19 18" fill="none" xmlns="http://www.w3.org/2000/svg">
<path d="M18.2287 11.1771C17.0267 15.9986 12.1433 18.9329 7.32127 17.7306C2.50125 16.5285 -0.433006 11.6449 0.769537 6.82378C1.97102 2.00177 6.8544 -0.932704 11.675 0.269311C16.4966 1.47133 19.4307 6.35553 18.2286 11.1772L18.2287 11.1771H18.2287Z" fill="#50AF95"/>
<path fill-rule="evenodd" clip-rule="evenodd" d="M10.6389 10.0202C10.5752 10.025 10.2464 10.0446 9.51302 10.0446C8.92967 10.0446 8.51549 10.0271 8.37018 10.0202C6.1158 9.92101 4.43311 9.52858 4.43311 9.05872C4.43311 8.58886 6.1158 8.19695 8.37018 8.09619V9.62934C8.51761 9.63995 8.93975 9.66487 9.5231 9.66487C10.2231 9.66487 10.5737 9.6357 10.6368 9.62987V8.09725C12.8864 8.19748 14.5654 8.58992 14.5654 9.05872C14.5654 9.52752 12.8869 9.91995 10.6368 10.0197L10.6389 10.0202ZM10.6387 7.93865V6.56671H13.7782V4.47461H5.23051V6.56671H8.36946V7.93812C5.8181 8.05532 3.89941 8.56071 3.89941 9.16633C3.89941 9.77195 5.8181 10.2768 8.36946 10.3945V14.7909H10.6382V10.393C13.1837 10.2758 15.0992 9.77089 15.0992 9.1658C15.0992 8.56071 13.1853 8.05585 10.6382 7.93812L10.6387 7.93865Z" fill="white"/>
</svg>
