<svg width="24" height="24" viewBox="0 0 24 24" fill="none" xmlns="http://www.w3.org/2000/svg">
<path d="M23.6383 14.9029C22.0356 21.3315 15.5244 25.2438 9.09503 23.6407C2.66833 22.0381 -1.24401 15.5265 0.359382 9.09837C1.96137 2.66903 8.47253 -1.24361 14.8999 0.359081C21.3289 1.96177 25.241 8.47405 23.6381 14.903L23.6382 14.9029H23.6383Z" fill="#50AF95"/>
<path fill-rule="evenodd" clip-rule="evenodd" d="M13.519 13.3608C13.4341 13.3672 12.9957 13.3934 12.0178 13.3934C11.24 13.3934 10.6878 13.37 10.494 13.3608C7.48818 13.2286 5.24458 12.7054 5.24458 12.0789C5.24458 11.4524 7.48818 10.9299 10.494 10.7955V12.8397C10.6906 12.8539 11.2534 12.8871 12.0312 12.8871C12.9646 12.8871 13.432 12.8482 13.5161 12.8404V10.7969C16.5156 10.9306 18.7543 11.4538 18.7543 12.0789C18.7543 12.704 16.5163 13.2272 13.5161 13.3601L13.519 13.3608ZM13.5189 10.5855V8.75627H17.7049V5.9668H6.308V8.75627H10.4933V10.5848C7.09146 10.7411 4.5332 11.4149 4.5332 12.2224C4.5332 13.0299 7.09146 13.7031 10.4933 13.86V19.7218H13.5182V13.8579C16.9122 13.7017 19.4662 13.0285 19.4662 12.2217C19.4662 11.4149 16.9144 10.7418 13.5182 10.5848L13.5189 10.5855Z" fill="white"/>
</svg>
