<svg width="20" height="20" viewBox="0 0 20 20" fill="none" xmlns="http://www.w3.org/2000/svg">
<path d="M13.3335 6.66732V5.00065C13.3335 4.55862 13.1579 4.1347 12.8453 3.82214C12.5328 3.50958 12.1089 3.33398 11.6668 3.33398H5.00016C4.55814 3.33398 4.13421 3.50958 3.82165 3.82214C3.50909 4.1347 3.3335 4.55862 3.3335 5.00065V11.6673C3.3335 12.1093 3.50909 12.5333 3.82165 12.8458C4.13421 13.1584 4.55814 13.334 5.00016 13.334H6.66683M6.66683 8.33398C6.66683 7.89196 6.84242 7.46803 7.15499 7.15547C7.46755 6.84291 7.89147 6.66732 8.3335 6.66732H15.0002C15.4422 6.66732 15.8661 6.84291 16.1787 7.15547C16.4912 7.46803 16.6668 7.89196 16.6668 8.33398V15.0007C16.6668 15.4427 16.4912 15.8666 16.1787 16.1792C15.8661 16.4917 15.4422 16.6673 15.0002 16.6673H8.3335C7.89147 16.6673 7.46755 16.4917 7.15499 16.1792C6.84242 15.8666 6.66683 15.4427 6.66683 15.0007V8.33398Z" stroke="#525866" stroke-width="1.66667" stroke-linecap="round" stroke-linejoin="round"/>
</svg>
