<svg width="19" height="18" viewBox="0 0 19 18" fill="none" xmlns="http://www.w3.org/2000/svg">
<path d="M3.33398 9C3.33398 9.19891 3.413 9.38968 3.55365 9.53033C3.69431 9.67098 3.88507 9.75 4.08398 9.75C4.2829 9.75 4.47366 9.67098 4.61431 9.53033C4.75497 9.38968 4.83398 9.19891 4.83398 9C4.83398 8.80109 4.75497 8.61032 4.61431 8.46967C4.47366 8.32902 4.2829 8.25 4.08398 8.25C3.88507 8.25 3.69431 8.32902 3.55365 8.46967C3.413 8.61032 3.33398 8.80109 3.33398 9Z" stroke="#868C98" stroke-width="1.5" stroke-linecap="round" stroke-linejoin="round"/>
<path d="M8.58398 9C8.58398 9.19891 8.663 9.38968 8.80365 9.53033C8.94431 9.67098 9.13507 9.75 9.33398 9.75C9.5329 9.75 9.72366 9.67098 9.86431 9.53033C10.005 9.38968 10.084 9.19891 10.084 9C10.084 8.80109 10.005 8.61032 9.86431 8.46967C9.72366 8.32902 9.5329 8.25 9.33398 8.25C9.13507 8.25 8.94431 8.32902 8.80365 8.46967C8.663 8.61032 8.58398 8.80109 8.58398 9Z" stroke="#868C98" stroke-width="1.5" stroke-linecap="round" stroke-linejoin="round"/>
<path d="M13.834 9C13.834 9.19891 13.913 9.38968 14.0537 9.53033C14.1943 9.67098 14.3851 9.75 14.584 9.75C14.7829 9.75 14.9737 9.67098 15.1143 9.53033C15.255 9.38968 15.334 9.19891 15.334 9C15.334 8.80109 15.255 8.61032 15.1143 8.46967C14.9737 8.32902 14.7829 8.25 14.584 8.25C14.3851 8.25 14.1943 8.32902 14.0537 8.46967C13.913 8.61032 13.834 8.80109 13.834 9Z" stroke="#868C98" stroke-width="1.5" stroke-linecap="round" stroke-linejoin="round"/>
</svg>
