<svg width="20" height="20" viewBox="0 0 20 20" fill="none" xmlns="http://www.w3.org/2000/svg">
<path d="M3.3335 11.6667V9.16667C3.3335 7.39856 4.03588 5.70286 5.28612 4.45262C6.53636 3.20238 8.23205 2.5 10.0002 2.5C11.7683 2.5 13.464 3.20238 14.7142 4.45262C15.9645 5.70286 16.6668 7.39856 16.6668 9.16667V11.6667M3.3335 11.6667C3.3335 11.2246 3.50909 10.8007 3.82165 10.4882C4.13421 10.1756 4.55814 10 5.00016 10H5.8335C6.27552 10 6.69945 10.1756 7.01201 10.4882C7.32457 10.8007 7.50016 11.2246 7.50016 11.6667V14.1667C7.50016 14.6087 7.32457 15.0326 7.01201 15.3452C6.69945 15.6577 6.27552 15.8333 5.8335 15.8333H5.00016C4.55814 15.8333 4.13421 15.6577 3.82165 15.3452C3.50909 15.0326 3.3335 14.6087 3.3335 14.1667V11.6667ZM16.6668 11.6667C16.6668 11.2246 16.4912 10.8007 16.1787 10.4882C15.8661 10.1756 15.4422 10 15.0002 10H14.1668C13.7248 10 13.3009 10.1756 12.9883 10.4882C12.6758 10.8007 12.5002 11.2246 12.5002 11.6667V14.1667C12.5002 14.6087 12.6758 15.0326 12.9883 15.3452C13.3009 15.6577 13.7248 15.8333 14.1668 15.8333H15.0002M16.6668 11.6667V14.1667C16.6668 14.6087 16.4912 15.0326 16.1787 15.3452C15.8661 15.6577 15.4422 15.8333 15.0002 15.8333M15.0002 15.8333C15.0002 17.2142 12.7618 18.3333 10.0002 18.3333" stroke="#525866" stroke-width="1.5" stroke-linecap="round" stroke-linejoin="round"/>
</svg>
