<svg width="14" height="14" viewBox="0 0 14 14" fill="none" xmlns="http://www.w3.org/2000/svg">
<path d="M6.99984 1.16699C10.2216 1.16699 12.8332 3.77858 12.8332 7.00033C12.8344 8.53185 12.2332 10.0024 11.1595 11.0945C10.0858 12.1866 8.62568 12.8127 7.09435 12.8375C5.56303 12.8623 4.08337 12.2839 2.97484 11.2272C1.8663 10.1704 1.21783 8.72009 1.16942 7.18933L1.1665 7.00033L1.16884 6.83699C1.25517 3.69108 3.83234 1.16699 6.99984 1.16699ZM6.99984 6.41699H6.4165L6.34825 6.42108C6.20648 6.43794 6.07581 6.50622 5.981 6.61297C5.88619 6.71973 5.83382 6.85755 5.83382 7.00033C5.83382 7.1431 5.88619 7.28092 5.981 7.38768C6.07581 7.49444 6.20648 7.56271 6.34825 7.57958L6.4165 7.58366V9.33366L6.42059 9.40191C6.43594 9.53212 6.49472 9.65336 6.58743 9.74607C6.68014 9.83878 6.80138 9.89755 6.93159 9.91291L6.99984 9.91699H7.58317L7.65142 9.91291C7.78163 9.89755 7.90287 9.83878 7.99558 9.74607C8.08829 9.65336 8.14707 9.53212 8.16242 9.40191L8.1665 9.33366L8.16242 9.26541C8.14848 9.1464 8.09822 9.03457 8.01848 8.94512C7.93874 8.85568 7.83339 8.79296 7.71675 8.76549L7.65142 8.75383L7.58317 8.75033V7.00033L7.57909 6.93208C7.56373 6.80187 7.50496 6.68063 7.41225 6.58792C7.31954 6.49521 7.1983 6.43643 7.06809 6.42108L6.99984 6.41699ZM7.00567 4.66699L6.93159 4.67108C6.78981 4.68794 6.65914 4.75622 6.56433 4.86297C6.46952 4.96973 6.41715 5.10755 6.41715 5.25033C6.41715 5.3931 6.46952 5.53092 6.56433 5.63768C6.65914 5.74443 6.78981 5.81271 6.93159 5.82958L6.99984 5.83366L7.07392 5.82958C7.2157 5.81271 7.34637 5.74443 7.44118 5.63768C7.53599 5.53092 7.58835 5.3931 7.58835 5.25033C7.58835 5.10755 7.53599 4.96973 7.44118 4.86297C7.34637 4.75622 7.2157 4.68794 7.07392 4.67108L7.00567 4.66699Z" fill="#868C98"/>
</svg>
