<svg width="16" height="16" viewBox="0 0 16 16" fill="none" xmlns="http://www.w3.org/2000/svg">
<path d="M10 3.33301V4.66634M10 7.33301V8.66634M10 11.333V12.6663M3.33333 3.33301H12.6667C13.0203 3.33301 13.3594 3.47348 13.6095 3.72353C13.8595 3.97358 14 4.31272 14 4.66634V6.66634C13.6464 6.66634 13.3072 6.80682 13.0572 7.05687C12.8071 7.30691 12.6667 7.64605 12.6667 7.99967C12.6667 8.3533 12.8071 8.69243 13.0572 8.94248C13.3072 9.19253 13.6464 9.33301 14 9.33301V11.333C14 11.6866 13.8595 12.0258 13.6095 12.2758C13.3594 12.5259 13.0203 12.6663 12.6667 12.6663H3.33333C2.97971 12.6663 2.64057 12.5259 2.39052 12.2758C2.14048 12.0258 2 11.6866 2 11.333V9.33301C2.35362 9.33301 2.69276 9.19253 2.94281 8.94248C3.19286 8.69243 3.33333 8.3533 3.33333 7.99967C3.33333 7.64605 3.19286 7.30691 2.94281 7.05687C2.69276 6.80682 2.35362 6.66634 2 6.66634V4.66634C2 4.31272 2.14048 3.97358 2.39052 3.72353C2.64057 3.47348 2.97971 3.33301 3.33333 3.33301Z" stroke="#3E7EFF" stroke-width="1.33333" stroke-linecap="round" stroke-linejoin="round"/>
</svg>
