<svg width="16" height="16" viewBox="0 0 16 16" fill="none" xmlns="http://www.w3.org/2000/svg">
<g clip-path="url(#clip0_8568_14325)">
<g filter="url(#filter0_d_8568_14325)">
<path d="M2.6665 4.66667H13.3332M6.6665 7.33333V11.3333M9.33317 7.33333V11.3333M3.33317 4.66667L3.99984 12.6667C3.99984 13.0203 4.14031 13.3594 4.39036 13.6095C4.64041 13.8595 4.97955 14 5.33317 14H10.6665C11.0201 14 11.3593 13.8595 11.6093 13.6095C11.8594 13.3594 11.9998 13.0203 11.9998 12.6667L12.6665 4.66667M5.99984 4.66667V2.66667C5.99984 2.48986 6.07008 2.32029 6.1951 2.19526C6.32012 2.07024 6.48969 2 6.6665 2H9.33317C9.50998 2 9.67955 2.07024 9.80458 2.19526C9.9296 2.32029 9.99984 2.48986 9.99984 2.66667V4.66667" stroke="#EF4444" stroke-width="1.33333" stroke-linecap="round" stroke-linejoin="round" shape-rendering="crispEdges"/>
</g>
</g>
<defs>
<filter id="filter0_d_8568_14325" x="-2" y="1.33301" width="20" height="21.334" filterUnits="userSpaceOnUse" color-interpolation-filters="sRGB">
<feFlood flood-opacity="0" result="BackgroundImageFix"/>
<feColorMatrix in="SourceAlpha" type="matrix" values="0 0 0 0 0 0 0 0 0 0 0 0 0 0 0 0 0 0 127 0" result="hardAlpha"/>
<feOffset dy="4"/>
<feGaussianBlur stdDeviation="2"/>
<feComposite in2="hardAlpha" operator="out"/>
<feColorMatrix type="matrix" values="0 0 0 0 0 0 0 0 0 0 0 0 0 0 0 0 0 0 0.25 0"/>
<feBlend mode="normal" in2="BackgroundImageFix" result="effect1_dropShadow_8568_14325"/>
<feBlend mode="normal" in="SourceGraphic" in2="effect1_dropShadow_8568_14325" result="shape"/>
</filter>
<clipPath id="clip0_8568_14325">
<rect width="16" height="16" fill="white"/>
</clipPath>
</defs>
</svg>
