<svg width="16" height="16" viewBox="0 0 16 16" fill="none" xmlns="http://www.w3.org/2000/svg">
<path d="M2.66699 4.66667H13.3337M6.66699 7.33333V11.3333M9.33366 7.33333V11.3333M3.33366 4.66667L4.00033 12.6667C4.00033 13.0203 4.1408 13.3594 4.39085 13.6095C4.6409 13.8595 4.98004 14 5.33366 14H10.667C11.0206 14 11.3598 13.8595 11.6098 13.6095C11.8598 13.3594 12.0003 13.0203 12.0003 12.6667L12.667 4.66667M6.00033 4.66667V2.66667C6.00033 2.48986 6.07056 2.32029 6.19559 2.19526C6.32061 2.07024 6.49018 2 6.66699 2H9.33366C9.51047 2 9.68004 2.07024 9.80506 2.19526C9.93009 2.32029 10.0003 2.48986 10.0003 2.66667V4.66667" stroke="#EF4444" stroke-width="1.33333" stroke-linecap="round" stroke-linejoin="round"/>
</svg>
