<svg width="20" height="20" viewBox="0 0 20 20" fill="none" xmlns="http://www.w3.org/2000/svg">
<path d="M14.1673 6.66634V4.16634C14.1673 3.94533 14.0795 3.73337 13.9232 3.57709C13.767 3.42081 13.555 3.33301 13.334 3.33301H5.00065C4.55862 3.33301 4.1347 3.5086 3.82214 3.82116C3.50958 4.13372 3.33398 4.55765 3.33398 4.99967M3.33398 4.99967C3.33398 5.4417 3.50958 5.86563 3.82214 6.17819C4.1347 6.49075 4.55862 6.66634 5.00065 6.66634H15.0007C15.2217 6.66634 15.4336 6.75414 15.5899 6.91042C15.7462 7.0667 15.834 7.27866 15.834 7.49967V9.99967M3.33398 4.99967V14.9997C3.33398 15.4417 3.50958 15.8656 3.82214 16.1782C4.1347 16.4907 4.55862 16.6663 5.00065 16.6663H15.0007C15.2217 16.6663 15.4336 16.5785 15.5899 16.4223C15.7462 16.266 15.834 16.054 15.834 15.833V13.333M16.6673 9.99967V13.333H13.334C12.892 13.333 12.468 13.1574 12.1555 12.8449C11.8429 12.5323 11.6673 12.1084 11.6673 11.6663C11.6673 11.2243 11.8429 10.8004 12.1555 10.4878C12.468 10.1753 12.892 9.99967 13.334 9.99967H16.6673Z" stroke="#3E7EFF" stroke-width="1.5" stroke-linecap="round" stroke-linejoin="round"/>
</svg>
