<svg width="24" height="24" viewBox="0 0 24 24" fill="none" xmlns="http://www.w3.org/2000/svg">
<path d="M23.6383 14.9029C22.0356 21.3315 15.5244 25.2438 9.09503 23.6407C2.66833 22.0381 -1.24401 15.5265 0.359382 9.09837C1.96137 2.66903 8.47253 -1.24361 14.8999 0.359081C21.3289 1.96177 25.241 8.47405 23.6381 14.903L23.6382 14.9029H23.6383Z" fill="#2C7DF7"/>
<path d="M13.7899 20C12.6482 20 11.8149 19.725 11.2899 19.175C10.8036 18.7094 10.5214 18.0702 10.505 17.3972C10.4991 17.1927 10.5465 16.9902 10.6425 16.8096C10.732 16.6536 10.8614 16.5241 11.0174 16.4344C11.385 16.2511 11.8173 16.2511 12.1849 16.4344C12.3406 16.5237 12.4694 16.6533 12.5578 16.8096C12.6566 16.9894 12.7057 17.1922 12.7002 17.3972C12.7104 17.6421 12.6401 17.8835 12.5002 18.0847C12.3836 18.2489 12.2168 18.3709 12.025 18.4324C12.2126 18.6712 12.478 18.8367 12.775 18.9C13.1073 18.9965 13.4515 19.0461 13.7975 19.0474C14.2556 19.0514 14.7043 18.9172 15.085 18.6624C15.48 18.3834 15.7745 17.9845 15.925 17.525C16.1157 16.978 16.2088 16.4017 16.2 15.8225C16.2154 15.2186 16.1135 14.6175 15.9 14.0525C15.7394 13.6005 15.4345 13.214 15.0325 12.9525C14.6588 12.716 14.225 12.5919 13.7827 12.595C13.3974 12.6276 13.0258 12.7538 12.7002 12.9625L11.8975 13.365V12.9625L15.5049 8.12303H10.505V13.145C10.4909 13.5074 10.5867 13.8656 10.78 14.1725C10.9702 14.4445 11.2888 14.5972 11.62 14.575C11.9208 14.5689 12.2117 14.4663 12.4499 14.2825C12.7199 14.0846 12.9548 13.8429 13.1449 13.5674C13.162 13.5191 13.1936 13.4773 13.2353 13.4475C13.2688 13.4186 13.3116 13.4026 13.3558 13.4025C13.4427 13.4105 13.5249 13.4454 13.5909 13.5025C13.6744 13.5958 13.7199 13.7172 13.7183 13.8424C13.7087 13.9267 13.6937 14.0102 13.6733 14.0924C13.4957 14.5224 13.198 14.892 12.8158 15.1571C12.4608 15.3973 12.0415 15.5247 11.6129 15.5225C10.5304 15.5225 9.78044 15.3092 9.36309 14.8825C8.92973 14.4061 8.70628 13.7754 8.74307 13.1324V8.12303H6.19995V7.18995H8.75493V5.06245L8.16997 4.47709V4H9.86739L10.505 4.33004V7.18995L17.1099 7.16986L17.7674 7.82985L13.7174 11.8995C13.9621 11.8011 14.2198 11.7388 14.4824 11.7145C15.0021 11.7373 15.5092 11.8821 15.9626 12.1371C16.4877 12.3867 16.9302 12.7816 17.2377 13.275C17.5132 13.6926 17.7083 14.1581 17.8127 14.6475C17.8986 15.0334 17.9447 15.4272 17.9502 15.8226C17.9529 16.5772 17.7818 17.3222 17.4503 18C17.1358 18.6564 16.6066 19.1856 15.9502 19.5001C15.2783 19.8312 14.539 20.0023 13.7899 20Z" fill="white"/>
</svg>
