<svg width="24" height="24" viewBox="0 0 24 24" fill="none" xmlns="http://www.w3.org/2000/svg">
<path d="M23.641 14.9029C22.0383 21.3315 15.5271 25.2438 9.09772 23.6407C2.67102 22.0381 -1.24132 15.5265 0.362068 9.09837C1.96405 2.66903 8.47521 -1.24361 14.9026 0.359081C21.3316 1.96177 25.2437 8.47405 23.6408 14.903L23.6409 14.9029H23.641Z" fill="#F7931A"/>
<path d="M12.825 4.50879L12.2957 6.62891C12.6488 6.70952 13.0043 6.79066 13.3503 6.87695L13.8757 4.77148L15.1921 5.09961L14.6531 7.2627C16.2636 7.81742 17.4554 8.63998 17.3113 10.1426L17.2927 10.29H17.2937C17.1209 11.459 16.4724 12.0252 15.6121 12.2236C16.7933 12.8386 17.3945 13.782 16.822 15.417C16.1114 17.4479 14.4228 17.6193 12.1775 17.1943L11.6326 19.3789L10.3152 19.0508L10.8533 16.8955C10.5121 16.8107 10.1636 16.7205 9.80444 16.623L9.2644 18.7881L7.94897 18.46L8.4939 16.2725C8.18636 16.1938 7.87409 16.1102 7.55542 16.0303L5.84155 15.6025L6.49487 14.0957C6.49487 14.0957 7.4651 14.3531 7.4519 14.334C7.82459 14.4263 7.99021 14.1835 8.05542 14.0215L8.91675 10.5693C8.96526 10.5809 9.01246 10.5926 9.0564 10.6035C9.00384 10.5824 8.95542 10.5689 8.9187 10.5596L9.53394 8.0957C9.54995 7.81592 9.45291 7.46219 8.91968 7.3291C8.93941 7.31526 7.97628 7.0947 7.96362 7.0918L8.31421 5.68555L10.1296 6.13867L10.1277 6.14551C10.4005 6.21339 10.6822 6.27759 10.9685 6.34277L11.5085 4.18066L12.825 4.50879ZM10.2312 15.0391C11.0959 15.2538 13.7065 16.0896 14.239 14.6553L14.2839 14.5088C14.7088 12.8038 11.8475 12.3625 10.9548 12.1396L10.2312 15.0391ZM11.2859 10.8135C12.0066 10.9932 14.1787 11.707 14.6511 10.3994L14.6912 10.2666C15.0777 8.71537 12.6848 8.36988 11.9412 8.18457L11.2859 10.8135Z" fill="white"/>
</svg>
