<svg width="25" height="24" viewBox="0 0 25 24" fill="none" xmlns="http://www.w3.org/2000/svg">
<path fill-rule="evenodd" clip-rule="evenodd" d="M12.6667 24C6.06675 24 0.666748 18.6001 0.666748 11.9402C0.726748 5.34038 6.06675 -0.0595036 12.7267 0.000495204C19.3267 0.060494 24.6667 5.40038 24.6667 12.1202C24.6067 18.6601 19.2667 24 12.6667 24Z" fill="#FC070C"/>
<path d="M5.81836 4.40025C6.0126 4.37662 15.9682 6.23741 18.1084 6.63658C18.2139 6.67417 18.313 6.72952 18.4004 6.79966L18.4521 6.83677C19.3394 7.62427 20.4293 8.73465 21.2168 9.46177C21.3843 9.60774 21.4628 9.83092 21.4238 10.0497C21.3488 10.187 21.2616 10.3175 21.1621 10.4383C20.393 11.4201 12.79 20.6385 12.79 20.6385C12.7823 20.6488 12.3646 21.1997 12.2656 21.2001H12.2236C12.0373 21.1843 11.9373 20.8745 11.8848 20.7118C11.0129 18.3118 6.58769 8.08874 5.4668 4.96763V4.75181L5.47949 4.71763C5.5079 4.63508 5.55499 4.56015 5.61621 4.4979L5.66602 4.45786C5.71177 4.4275 5.76398 4.40789 5.81836 4.40025ZM12.1631 18.5174L13.0137 11.2254L7.13672 6.23814L12.1631 18.5174ZM13.9854 11.5585L13.166 18.5126L19.7021 10.6376L13.9854 11.5585ZM14.7412 10.535L19.8887 9.59751L17.9854 7.84458L14.7412 10.535ZM13.4814 10.3592L16.9326 7.4481L7.89551 5.78111L13.4814 10.3592Z" fill="white"/>
</svg>
