<svg width="25" height="24" viewBox="0 0 25 24" fill="none" xmlns="http://www.w3.org/2000/svg">
<circle cx="12.3333" cy="12" r="12" fill="#EDF0F4"/>
<path d="M15.9338 9.58996C15.6779 9.44278 15.3489 9.44278 15.0565 9.58996L13.0095 10.8042L11.6205 11.5769L9.61001 12.7911C9.35414 12.9383 9.02516 12.9383 8.73273 12.7911L7.16093 11.8345C6.90505 11.6873 6.72229 11.3929 6.72229 11.0618V9.22201C6.72229 8.92765 6.8685 8.63328 7.16093 8.44931L8.73273 7.52943C8.9886 7.38224 9.31759 7.38224 9.61001 7.52943L11.1818 8.4861C11.4377 8.63328 11.6205 8.92764 11.6205 9.2588V10.473L13.0095 9.66355V8.41251C13.0095 8.11815 12.8633 7.82379 12.5708 7.63981L9.64657 5.91043C9.39069 5.76325 9.06171 5.76325 8.76928 5.91043L5.77189 7.67661C5.47947 7.82379 5.33325 8.11815 5.33325 8.41251V11.8713C5.33325 12.1656 5.47947 12.46 5.77189 12.644L8.73273 14.3733C8.9886 14.5205 9.31759 14.5205 9.61001 14.3733L11.6205 13.1959L13.0095 12.3864L15.0199 11.209C15.2758 11.0618 15.6048 11.0618 15.8972 11.209L17.469 12.1288C17.7249 12.276 17.9077 12.5704 17.9077 12.9015V14.7413C17.9077 15.0357 17.7615 15.33 17.469 15.514L15.9338 16.4339C15.6779 16.5811 15.3489 16.5811 15.0565 16.4339L13.4847 15.514C13.2288 15.3668 13.046 15.0725 13.046 14.7413V13.5638L11.657 14.3733V15.5876C11.657 15.8819 11.8032 16.1763 12.0957 16.3603L15.0565 18.0897C15.3124 18.2368 15.6413 18.2368 15.9338 18.0897L18.8946 16.3603C19.1505 16.2131 19.3333 15.9187 19.3333 15.5876V12.092C19.3333 11.7977 19.187 11.5033 18.8946 11.3193L15.9338 9.58996Z" fill="#8247E5"/>
</svg>
