<svg width="25" height="24" viewBox="0 0 25 24" fill="none" xmlns="http://www.w3.org/2000/svg">
<g clip-path="url(#clip0_8492_1994)">
<circle cx="12.3333" cy="12" r="12" fill="#EDF0F4"/>
<path d="M12.3323 4C13.4106 4 14.4609 4.21027 15.4475 4.62696C18.4104 5.87704 20.3359 8.78126 20.3333 11.9971C20.3333 13.0771 20.1211 14.1249 19.7043 15.1113C18.8915 17.0287 17.3649 18.5553 15.4475 19.3682C14.4609 19.7882 13.4143 20 12.3342 20C11.2542 20 10.2064 19.7879 9.21997 19.3711C7.30273 18.5582 5.77692 17.0316 4.96411 15.1143C4.54562 14.1262 4.33325 13.0792 4.33325 11.999C4.33327 10.9189 4.54545 9.87235 4.96216 8.88575C6.21228 5.92273 9.11635 3.99721 12.3323 4ZM12.0237 5.78418C10.4782 5.85967 9.03507 6.49823 7.93286 7.59864C6.75711 8.77457 6.1116 10.3372 6.11157 11.999C6.11157 13.661 6.75902 15.2244 7.93286 16.4004C9.10886 17.5744 10.6722 18.2217 12.3342 18.2217C13.996 18.2216 15.559 17.574 16.7346 16.4004C17.9086 15.2244 18.5559 13.661 18.5559 11.999C18.5558 10.3371 17.9083 8.77425 16.7346 7.59864C15.5587 6.42472 13.9961 5.77646 12.3342 5.77637L12.0237 5.78418Z" fill="black"/>
<path d="M11.8532 13.991H15.3196V15.733H13.1852C13.2199 16.2314 13.239 16.693 13.2737 17.19H11.4779V15.75H9.34348C9.34348 15.1804 9.27228 14.6125 9.3782 14.0793C9.43204 13.7945 9.75156 13.5462 9.9478 13.2978C10.6234 12.4971 11.2989 11.7157 11.9919 10.915C12.2593 10.6129 12.525 10.3281 12.8272 9.99112H9.50324V8.2496H11.4761V6.79248H13.2006V8.2148H15.3526C15.3526 8.80176 15.4238 9.36968 15.3179 9.90456C15.264 10.1894 14.9445 10.4377 14.7309 10.6861C14.0553 11.4867 13.3798 12.2682 12.6868 13.0688C12.4228 13.3866 12.1572 13.6697 11.8532 13.991" fill="black"/>
</g>
<defs>
<clipPath id="clip0_8492_1994">
<rect width="24" height="24" fill="white" transform="translate(0.333252)"/>
</clipPath>
</defs>
</svg>
