<svg width="25" height="24" viewBox="0 0 25 24" fill="none" xmlns="http://www.w3.org/2000/svg">
<path d="M23.9713 14.9029C22.3686 21.3315 15.8574 25.2438 9.42804 23.6407C3.00134 22.0381 -0.911 15.5265 0.69239 9.09837C2.29437 2.66903 8.80554 -1.24361 15.2329 0.359081C21.6619 1.96177 25.574 8.47405 23.9711 14.903L23.9712 14.9029H23.9713Z" fill="#50AF95"/>
<path fill-rule="evenodd" clip-rule="evenodd" d="M13.852 13.3605C13.7671 13.3668 13.3287 13.393 12.3508 13.393C11.573 13.393 11.0208 13.3697 10.827 13.3605C7.82119 13.2282 5.57759 12.705 5.57759 12.0785C5.57759 11.452 7.82119 10.9295 10.827 10.7951V12.8393C11.0236 12.8535 11.5864 12.8867 12.3642 12.8867C13.2976 12.8867 13.765 12.8478 13.8491 12.8401V10.7966C16.8486 10.9302 19.0873 11.4534 19.0873 12.0785C19.0873 12.7036 16.8493 13.2268 13.8491 13.3598L13.852 13.3605ZM13.8519 10.5851V8.7559H18.0379V5.96643H6.64101V8.7559H10.8263V10.5844C7.42446 10.7407 4.86621 11.4146 4.86621 12.2221C4.86621 13.0296 7.42446 13.7027 10.8263 13.8597V19.7215H13.8512V13.8576C17.2452 13.7013 19.7993 13.0281 19.7993 12.2214C19.7993 11.4146 17.2474 10.7414 13.8512 10.5844L13.8519 10.5851Z" fill="white"/>
</svg>
