<svg width="24" height="24" viewBox="0 0 24 24" fill="none" xmlns="http://www.w3.org/2000/svg">
<circle cx="12" cy="12" r="12" fill="#8DC351"/>
<path d="M12.1562 6.68994C13.8831 6.39143 15.3095 6.46596 15.9102 7.9585C16.3605 9.07778 16.0602 9.82362 15.3096 10.5698C16.6609 10.4952 17.6372 11.018 17.9375 12.6597C18.3129 14.7491 16.9614 15.7191 14.8594 16.4653L15.46 18.5552L14.1836 18.9282L13.583 16.8394C13.2078 16.9885 12.9074 17.0626 12.5322 17.1372L13.1328 19.2271L11.8564 19.6001L11.2559 17.5103C10.9555 17.5849 10.6548 17.6602 10.3545 17.7349L8.70312 18.1821L8.55273 16.6147L9.45312 16.3169C9.82852 16.1676 9.8291 15.8685 9.8291 15.7192L8.85254 12.3608L9.00293 12.2866H8.85254L8.17773 9.89893C8.02758 9.60042 7.80192 9.37663 7.27637 9.52588C7.35112 9.52597 6.375 9.82373 6.375 9.82373L6 8.48096L7.72656 7.8833C8.02688 7.80867 8.25242 7.73429 8.55273 7.65967L7.95215 5.56982L9.22852 5.19678L9.8291 7.28662C10.2044 7.212 10.5796 7.06242 10.8799 6.98779L10.2793 4.97314L11.5557 4.6001L12.1562 6.68994ZM15.46 13.0327C14.9343 11.3912 12.3062 12.4358 11.4053 12.6597L12.2314 15.4956C13.1324 15.1971 15.9104 14.5999 15.46 13.0327ZM13.6582 9.22705C13.2828 7.73451 11.0301 8.63012 10.2793 8.854L11.0303 11.3911C11.781 11.1672 14.1085 10.6449 13.6582 9.22705Z" fill="white"/>
</svg>
