<svg width="25" height="24" viewBox="0 0 25 24" fill="none" xmlns="http://www.w3.org/2000/svg">
<path d="M24.3048 14.9029C22.7021 21.3315 16.1909 25.2438 9.76154 23.6407C3.33484 22.0381 -0.577504 15.5265 1.02589 9.09837C2.62787 2.66903 9.13903 -1.24361 15.5664 0.359081C21.9954 1.96177 25.9075 8.47405 24.3046 14.903L24.3047 14.9029H24.3048Z" fill="#23292F"/>
<path d="M18.567 5H20.9886L15.9491 9.98976C14.1241 11.7958 11.1652 11.7958 9.33883 9.98976L4.29736 5H6.72091L10.5496 8.79043C11.7104 9.93443 13.5746 9.93443 14.7354 8.79043L18.567 5Z" fill="white"/>
<path d="M6.68982 18.8751H4.2666L9.33883 13.8545C11.1639 12.0485 14.1228 12.0485 15.9491 13.8545L21.0213 18.8751H18.5997L14.7383 15.0539C13.5776 13.9099 11.7133 13.9099 10.5526 15.0539L6.68982 18.8751Z" fill="white"/>
</svg>
