<svg width="24" height="24" viewBox="0 0 24 24" fill="none" xmlns="http://www.w3.org/2000/svg">
<path d="M23.6383 14.9029C22.0356 21.3315 15.5244 25.2438 9.09503 23.6407C2.66833 22.0381 -1.24401 15.5265 0.359382 9.09837C1.96137 2.66903 8.47253 -1.24361 14.8999 0.359081C21.3289 1.96177 25.241 8.47405 23.6381 14.903L23.6382 14.9029H23.6383Z" fill="#F3BA2F"/>
<path d="M16.918 15.082L12 20L7.08203 15.082L8.89258 13.2764L12 16.3838L15.1084 13.2754L16.918 15.082ZM20 12.001L18.1924 13.8086L16.3838 12.001L18.1924 10.1924L20 12.001ZM7.61621 12L5.80762 13.8076L4 12L5.80762 10.1914L7.61621 12ZM16.917 8.91699L15.1084 10.7246L12 7.61621L8.89258 10.7236L7.08496 8.91504L12 4L16.917 8.91699Z" fill="white"/>
<path d="M13.8336 11.9991H13.8344L11.9999 10.1644L10.6439 11.52L10.4881 11.6759L10.1669 11.9972L10.1643 11.9997L10.1669 12.0023L11.9999 13.8356L13.8345 12.001L13.8354 11.9999L13.8337 11.9991" fill="white"/>
</svg>
