<svg width="25" height="24" viewBox="0 0 25 24" fill="none" xmlns="http://www.w3.org/2000/svg">
<circle cx="12.3333" cy="12" r="12" fill="black"/>
<path d="M18.4553 6.67222L16.4194 7.70951L6.58808 12.7171C6.55484 12.4635 6.53811 12.2081 6.53801 11.9524C6.54074 9.87624 7.64239 7.95672 9.43361 6.90705C11.2248 5.85738 13.4379 5.83445 15.2505 6.84677L16.4158 6.25302L16.5896 6.16431C14.413 4.58445 11.5341 4.35899 9.13802 5.58073C6.74194 6.80246 5.23361 9.26492 5.23389 11.9545C5.23389 12.1367 5.2408 12.3181 5.25464 12.4989C5.29424 13.0223 5.01552 13.5182 4.54785 13.7565L3.93335 14.0698V15.5313L5.74252 14.6092L6.3284 14.3102L6.90571 14.0162L17.27 8.73534L18.4346 8.1423L20.8418 6.91545V5.45466L18.4553 6.67222Z" fill="white"/>
<path d="M20.8418 8.37769L7.49445 15.1737L6.32983 15.7682L3.93335 16.9893V18.4494L6.31338 17.2368L8.34932 16.1995L18.1906 11.1848C18.2239 11.44 18.2406 11.6971 18.2407 11.9545C18.2394 14.0331 17.1365 15.9553 15.3426 17.0054C13.5488 18.0554 11.3327 18.076 9.51966 17.0594L9.44812 17.0973L8.18478 17.7411C10.3609 19.321 13.2393 19.547 15.6354 18.3261C18.0314 17.1052 19.5404 14.6437 19.5413 11.9545C19.5413 11.7707 19.5341 11.5868 19.5205 11.4051C19.481 10.8819 19.7593 10.3862 20.2266 10.1475L20.8418 9.83418V8.37769Z" fill="white"/>
</svg>
