<svg width="25" height="24" viewBox="0 0 25 24" fill="none" xmlns="http://www.w3.org/2000/svg">
<g clip-path="url(#clip0_8492_2228)">
<circle cx="12.6665" cy="12" r="12" fill="#EDF0F4"/>
<path d="M12.6934 19.0823C11.2145 16.911 9.5814 14.5143 8.2666 12.5774C9.82021 13.4025 11.4412 14.2666 12.6934 14.9348L17.084 12.5774C15.4942 14.9392 14.1696 16.9062 12.6934 19.0823ZM16.9053 11.9094L12.7002 14.1868L8.43555 11.926L12.6982 9.65161L16.9053 11.9094ZM17.084 11.2678L12.6934 8.9231L8.2666 11.2532L12.6738 4.80005L17.084 11.2678Z" fill="#3AB83A"/>
<path d="M12.6936 19.0823V14.9348L17.0842 12.5774C15.4944 14.9392 12.6936 19.0823 12.6936 19.0823ZM16.9055 11.9094L12.7004 14.1868L12.6985 9.65161L16.9055 11.9094ZM17.0842 11.2678L12.6936 8.9231L12.6741 4.80005L17.0842 11.2678Z" fill="#0B8311"/>
<path d="M8.4353 11.9263L12.6984 12.2762L16.9057 11.9119L12.7005 14.1892L8.4353 11.9263Z" fill="#0B8311"/>
<path d="M12.6982 12.2762L16.9056 11.9119L12.7006 14.1892L12.6982 12.2762Z" fill="#146714"/>
</g>
<defs>
<clipPath id="clip0_8492_2228">
<rect width="24" height="24" fill="white" transform="translate(0.666504)"/>
</clipPath>
</defs>
</svg>
