<svg width="25" height="24" viewBox="0 0 25 24" fill="none" xmlns="http://www.w3.org/2000/svg">
<circle cx="12.7667" cy="11.9" r="10.7" fill="white"/>
<path d="M12.7361 0C15.9094 0.0092338 18.9499 1.27886 21.1873 3.5293C23.4244 5.77971 24.676 8.82678 24.6667 12C24.6667 18.6274 19.2941 24 12.6667 24C6.03936 24 0.666748 18.6274 0.666748 12C0.666748 5.37258 6.03936 0 12.6667 0H12.7361ZM12.405 3.69043C12.2036 3.68429 12.0241 3.81582 11.9695 4.00977L9.55737 12.2031L7.64038 12.7842L7.20386 14.1211L9.12183 13.54L7.40796 19.3799H17.6355C17.8375 19.3881 18.0183 19.2557 18.071 19.0605L18.6521 17.0557V16.9453C18.6491 16.8559 18.611 16.771 18.5457 16.71C18.4803 16.6489 18.3929 16.617 18.3035 16.6201H11.6208L12.8699 12.4072L14.8171 11.8545L15.2234 10.46L13.3064 11.041L15.3396 4.12598V4.01562C15.3366 3.92622 15.2986 3.84131 15.2332 3.78027C15.1678 3.71923 15.0804 3.68729 14.991 3.69043H12.405Z" fill="#345D9D"/>
</svg>
