<svg width="24" height="24" viewBox="0 0 24 24" fill="none" xmlns="http://www.w3.org/2000/svg">
<circle cx="12" cy="12" r="12" fill="black"/>
<path d="M7.43871 14.8431C7.52187 14.7599 7.63621 14.7114 7.75748 14.7114H18.755C18.9559 14.7114 19.0564 14.954 18.9144 15.096L16.7419 17.2685C16.6587 17.3517 16.5444 17.4002 16.4231 17.4002H5.42562C5.22466 17.4002 5.12418 17.1576 5.26624 17.0156L7.43871 14.8431Z" fill="url(#paint0_linear_8492_1908)"/>
<path d="M7.43896 6.73176C7.52558 6.64861 7.63992 6.6001 7.75772 6.6001H18.7552C18.9562 6.6001 19.0567 6.84264 18.9146 6.9847L16.7421 9.15717C16.659 9.24033 16.5446 9.28884 16.4234 9.28884H5.42587C5.2249 9.28884 5.12442 9.0463 5.26648 8.90424L7.43896 6.73176Z" fill="url(#paint1_linear_8492_1908)"/>
<path d="M16.7419 10.7613C16.6587 10.6781 16.5444 10.6296 16.4231 10.6296H5.42562C5.22466 10.6296 5.12418 10.8722 5.26624 11.0142L7.43871 13.1867C7.52187 13.2699 7.63621 13.3184 7.75748 13.3184H18.755C18.9559 13.3184 19.0564 13.0758 18.9144 12.9338L16.7419 10.7613Z" fill="url(#paint2_linear_8492_1908)"/>
<defs>
<linearGradient id="paint0_linear_8492_1908" x1="-19.6565" y1="4.55991" x2="-19.9492" y2="19.2838" gradientUnits="userSpaceOnUse">
<stop stop-color="#00FFA3"/>
<stop offset="1" stop-color="#DC1FFF"/>
</linearGradient>
<linearGradient id="paint1_linear_8492_1908" x1="-22.9843" y1="2.82235" x2="-23.2769" y2="17.5462" gradientUnits="userSpaceOnUse">
<stop stop-color="#00FFA3"/>
<stop offset="1" stop-color="#DC1FFF"/>
</linearGradient>
<linearGradient id="paint2_linear_8492_1908" x1="-21.3312" y1="3.68546" x2="-21.6238" y2="18.4093" gradientUnits="userSpaceOnUse">
<stop stop-color="#00FFA3"/>
<stop offset="1" stop-color="#DC1FFF"/>
</linearGradient>
</defs>
</svg>
