<svg width="25" height="24" viewBox="0 0 25 24" fill="none" xmlns="http://www.w3.org/2000/svg">
<circle cx="12.3333" cy="12" r="12" fill="#EDF0F4"/>
<path d="M8.71957 11.9391C8.68544 12.5322 9.14195 13.0399 9.73499 13.074C9.75632 13.074 9.77766 13.074 9.79899 13.074C10.3963 13.074 10.8784 12.5919 10.8741 11.9946C10.8741 11.3973 10.392 10.9152 9.79472 10.9195C9.22301 10.9195 8.74943 11.3674 8.71957 11.9391Z" fill="#0033AD"/>
<path d="M4.70053 11.6617C4.50854 11.6489 4.34214 11.7982 4.33361 11.9902C4.32508 12.1822 4.47014 12.3486 4.66213 12.3571C4.85412 12.3699 5.01625 12.2206 5.02905 12.0286C5.04184 11.8366 4.89252 11.6745 4.70053 11.6617Z" fill="#0033AD"/>
<path d="M8.65131 5.6843C8.82197 5.59897 8.89023 5.38565 8.8049 5.21499C8.71958 5.04433 8.50625 4.97606 8.33559 5.06139C8.16493 5.14672 8.09667 5.35578 8.182 5.52644C8.26733 5.70137 8.47639 5.7739 8.65131 5.6843C8.65131 5.6843 8.64704 5.6843 8.65131 5.6843Z" fill="#0033AD"/>
<path d="M9.74362 7.59143C10.0081 7.45917 10.1148 7.13492 9.98254 6.87039C9.85028 6.60587 9.52603 6.49921 9.26151 6.63147C8.99699 6.76373 8.89032 7.08798 9.02258 7.35251C9.15485 7.61703 9.4791 7.72369 9.74362 7.59143Z" fill="#0033AD"/>
<path d="M6.0658 8.90143C6.27059 9.03369 6.54364 8.97823 6.68017 8.77344C6.81243 8.56865 6.75697 8.29559 6.55218 8.15907C6.34739 8.02681 6.07433 8.08227 5.93781 8.28706C5.80128 8.49185 5.86101 8.76917 6.0658 8.90143Z" fill="#0033AD"/>
<path d="M6.71849 11.4697C6.41984 11.4526 6.16812 11.6787 6.15105 11.9774C6.13399 12.276 6.36011 12.5277 6.65876 12.5448C6.95742 12.5619 7.20914 12.3358 7.2262 12.0371C7.24327 11.7427 7.01715 11.4867 6.71849 11.4697Z" fill="#0033AD"/>
<path d="M6.12554 15.0833C5.90795 15.1943 5.81835 15.4588 5.92928 15.6806C6.04021 15.8982 6.30473 15.9878 6.52658 15.8769C6.74418 15.766 6.83377 15.5014 6.72284 15.2796C6.61191 15.062 6.34313 14.9724 6.12554 15.0833Z" fill="#0033AD"/>
<path d="M8.21617 10.3562C8.51056 10.5482 8.90308 10.4671 9.0908 10.1727C9.28279 9.87834 9.20173 9.48582 8.90734 9.2981C8.61295 9.1061 8.22044 9.18717 8.03271 9.48155C7.84072 9.77167 7.92179 10.1642 8.21617 10.3562Z" fill="#0033AD"/>
<path d="M14.8505 7.54896C15.0979 7.71108 15.435 7.64282 15.5971 7.39536C15.7592 7.14791 15.691 6.81086 15.4435 6.64873C15.1961 6.4866 14.859 6.55487 14.6969 6.80232C14.5305 7.05404 14.5987 7.38683 14.8505 7.54896Z" fill="#0033AD"/>
<path d="M15.9511 5.65029C16.1133 5.75695 16.3266 5.71002 16.4333 5.54789C16.5399 5.38577 16.493 5.17245 16.3309 5.06578C16.1687 4.95912 15.9554 5.00605 15.8488 5.16391C15.7464 5.32604 15.7933 5.54363 15.9511 5.65029Z" fill="#0033AD"/>
<path d="M14.9316 10.9107C14.3386 10.8766 13.8266 11.3331 13.7967 11.9262C13.7626 12.5192 14.2191 13.0312 14.8121 13.061C14.8335 13.061 14.8548 13.061 14.8719 13.061C15.4649 13.061 15.947 12.5789 15.947 11.9816C15.9513 11.4142 15.5033 10.9406 14.9316 10.9107Z" fill="#0033AD"/>
<path d="M10.0976 10.2794C10.2811 10.6421 10.6523 10.8725 11.0618 10.8725C11.6549 10.8725 12.137 10.3904 12.137 9.79305C12.137 9.62665 12.0986 9.46026 12.0218 9.30667C11.753 8.77336 11.1045 8.56003 10.5755 8.82882C10.0422 9.10188 9.82883 9.75038 10.0976 10.2794Z" fill="#0033AD"/>
<path d="M18.5409 8.90135C18.7585 8.79042 18.8439 8.52164 18.7329 8.30405C18.622 8.08646 18.3532 8.00113 18.1356 8.11206C17.918 8.22298 17.8327 8.48751 17.9394 8.7051C18.0546 8.92269 18.3191 9.01228 18.5409 8.90135Z" fill="#0033AD"/>
<path d="M15.8105 9.2426C15.499 9.40046 15.371 9.78018 15.5289 10.0916C15.6868 10.4031 16.0665 10.5311 16.3779 10.3732C16.6894 10.2154 16.8174 9.83564 16.6595 9.52419C16.5017 9.21274 16.1219 9.08901 15.8105 9.2426Z" fill="#0033AD"/>
<path d="M12.2906 5.48816C12.5337 5.50095 12.7428 5.31323 12.7599 5.07004C12.7769 4.82685 12.5849 4.61779 12.3418 4.60073C12.0986 4.58793 11.8895 4.77139 11.8724 5.01458C11.8596 5.26203 12.0474 5.47109 12.2906 5.48816Z" fill="#0033AD"/>
<path d="M12.2863 8.27407C12.6362 8.29541 12.9348 8.02662 12.9519 7.67677C12.9732 7.32692 12.7044 7.02826 12.3546 7.0112C12.0047 6.98986 11.7061 7.25865 11.689 7.6085C11.6719 7.95835 11.9365 8.25701 12.2863 8.27407Z" fill="#0033AD"/>
<path d="M8.85595 14.742C9.16741 14.5842 9.2954 14.2045 9.13754 13.893C8.97968 13.5816 8.59996 13.4536 8.28851 13.6114C7.97706 13.7693 7.84906 14.149 8.00692 14.4604C8.16478 14.7719 8.5445 14.8999 8.85595 14.742Z" fill="#0033AD"/>
<path d="M12.6959 9.2C12.3717 9.69918 12.5082 10.3647 13.0074 10.689C13.5066 11.0133 14.1721 10.8767 14.4964 10.3775C14.8206 9.87837 14.6841 9.2128 14.1849 8.88855C14.01 8.77335 13.8052 8.71362 13.5962 8.71362C13.2335 8.71362 12.8965 8.89708 12.6959 9.2Z" fill="#0033AD"/>
<path d="M14.5689 13.7053C14.3001 13.172 13.6516 12.9587 13.1226 13.2275C12.5893 13.4963 12.376 14.1448 12.6447 14.6738C12.9135 15.2071 13.562 15.4205 14.0911 15.1517C14.6201 14.8872 14.8377 14.2472 14.5732 13.7139C14.5732 13.7096 14.5732 13.7096 14.5689 13.7053Z" fill="#0033AD"/>
<path d="M16.4503 13.6287C16.1559 13.4367 15.7634 13.5177 15.5757 13.8121C15.3837 14.1065 15.4648 14.499 15.7591 14.6867C16.0535 14.8787 16.446 14.7977 16.6338 14.5033C16.8258 14.2132 16.7447 13.8207 16.4503 13.6287Z" fill="#0033AD"/>
<path d="M18.5153 12.0117C18.5323 11.7131 18.3062 11.4613 18.0076 11.4443C17.7089 11.4272 17.4572 11.6533 17.4401 11.952C17.423 12.2506 17.6492 12.5024 17.9478 12.5194C18.2422 12.5365 18.4982 12.3061 18.5153 12.0117Z" fill="#0033AD"/>
<path d="M20.0045 11.6277C19.8125 11.6149 19.6461 11.7642 19.6376 11.9562C19.629 12.1482 19.7741 12.3146 19.9661 12.3232C20.1581 12.336 20.3202 12.1866 20.333 11.9946C20.3415 11.8026 20.1965 11.6405 20.0045 11.6277Z" fill="#0033AD"/>
<path d="M18.6006 15.0834C18.3958 14.9511 18.1227 15.0066 17.9862 15.2114C17.854 15.4162 17.9094 15.6892 18.1142 15.8257C18.319 15.958 18.5921 15.9025 18.7286 15.6978C18.8651 15.493 18.8054 15.2156 18.6006 15.0834Z" fill="#0033AD"/>
<path d="M8.71098 18.3346C8.54885 18.2279 8.33553 18.2749 8.22887 18.4327C8.12221 18.5948 8.16914 18.8082 8.327 18.9148C8.48912 19.0215 8.70245 18.9746 8.80911 18.8167C8.92004 18.6588 8.87311 18.4412 8.71098 18.3346Z" fill="#0033AD"/>
<path d="M16.0153 18.3005C15.8446 18.3858 15.7764 18.5991 15.8617 18.7698C15.947 18.9404 16.1603 19.0087 16.331 18.9234C16.5017 18.838 16.5699 18.629 16.4846 18.4583C16.3993 18.2834 16.1902 18.2109 16.0153 18.3005C16.0195 18.3005 16.0153 18.3005 16.0153 18.3005Z" fill="#0033AD"/>
<path d="M11.9706 14.7849C12.2948 14.2857 12.1583 13.6202 11.6591 13.2916C11.1599 12.9674 10.4944 13.1039 10.1658 13.6031C9.83731 14.1023 9.97811 14.7678 10.4773 15.0964C10.6522 15.2115 10.857 15.2713 11.0661 15.2713C11.433 15.2755 11.77 15.0921 11.9706 14.7849Z" fill="#0033AD"/>
<path d="M9.81602 16.4358C9.56856 16.2737 9.23151 16.342 9.06938 16.5894C8.90726 16.8369 8.97552 17.1739 9.22298 17.3361C9.47043 17.4982 9.80748 17.4299 9.96961 17.1825C10.136 16.935 10.0677 16.598 9.81602 16.4358Z" fill="#0033AD"/>
<path d="M12.329 18.4967C12.0858 18.4839 11.8768 18.6716 11.8597 18.9148C11.8426 19.158 12.0346 19.3671 12.2778 19.3841C12.521 19.3969 12.7301 19.2135 12.7471 18.9703C12.7599 18.7228 12.5722 18.5138 12.329 18.4967Z" fill="#0033AD"/>
<path d="M12.3333 15.7107C11.9834 15.6893 11.6848 15.9581 11.6677 16.308C11.6464 16.6578 11.9151 16.9565 12.265 16.9735C12.6148 16.9906 12.9135 16.7261 12.9306 16.3762C12.9519 16.0306 12.6831 15.7277 12.3333 15.7107Z" fill="#0033AD"/>
<path d="M14.9231 16.3934C14.6586 16.5299 14.5519 16.8541 14.6884 17.1187C14.825 17.3832 15.1492 17.4898 15.4137 17.3533C15.6783 17.2211 15.7849 16.8968 15.6527 16.6323C15.5161 16.3678 15.1919 16.2568 14.9231 16.3934Z" fill="#0033AD"/>
</svg>
