<svg width="25" height="24" viewBox="0 0 25 24" fill="none" xmlns="http://www.w3.org/2000/svg">
<circle cx="12.3333" cy="12" r="12" fill="black"/>
<path d="M15.9617 6.61345L13.4546 10.3341C13.2812 10.5875 13.6146 10.8942 13.8546 10.6809L16.3218 8.5338C16.3884 8.48046 16.4818 8.52047 16.4818 8.61382V15.3217C16.4818 15.4151 16.3618 15.4551 16.3084 15.3884L8.84038 6.45342C8.60034 6.16003 8.25361 6 7.86687 6H7.60015C6.90669 6 6.33325 6.57344 6.33325 7.28024V16.722C6.33325 17.4288 6.90669 18.0022 7.61349 18.0022C8.05357 18.0022 8.46698 17.7755 8.70702 17.3888L11.2142 13.6681C11.3875 13.4147 11.0541 13.108 10.8141 13.3214L8.34696 15.4551C8.28028 15.5084 8.18693 15.4684 8.18693 15.3751V8.6805C8.18693 8.58715 8.30695 8.54714 8.36029 8.61382L15.8283 17.5488C16.0684 17.8422 16.4285 18.0022 16.8019 18.0022H17.0686C17.7754 18.0022 18.3488 17.4288 18.3488 16.722V7.28024C18.3488 6.57344 17.7754 6 17.0686 6C16.6152 6 16.2017 6.22671 15.9617 6.61345Z" fill="white"/>
</svg>
