<svg width="25" height="24" viewBox="0 0 25 24" fill="none" xmlns="http://www.w3.org/2000/svg">
<circle cx="12.6665" cy="12" r="12" fill="#EDF0F4"/>
<path d="M12.7181 4C9.3815 4.0134 6.67991 6.715 6.6665 10.0516C6.6665 10.7198 6.77436 11.3836 6.98561 12.0173C7.14326 12.4488 7.61107 12.6811 8.05017 12.5477C8.47459 12.385 8.69988 11.921 8.56458 11.487C8.38524 10.993 8.30546 10.469 8.32907 9.9444C8.40183 7.53447 10.4141 5.63959 12.8241 5.71235C15.234 5.78511 17.1289 7.79742 17.0561 10.2073C16.9878 12.4635 15.211 14.2958 12.9575 14.433C12.9575 14.433 12.108 14.4847 11.6855 14.5364C11.5298 14.5587 11.3753 14.5894 11.2228 14.6283C11.2011 14.6507 11.166 14.6507 11.1436 14.629L11.143 14.6283C11.1277 14.6085 11.1277 14.5804 11.143 14.5607L11.2745 13.8433L12.0722 10.2552C12.168 9.80718 11.8827 9.36617 11.4347 9.27044C10.9866 9.17471 10.5456 9.45999 10.4499 9.90802C10.4499 9.90802 8.55245 18.6906 8.55245 18.7704C8.44395 19.1973 8.70179 19.6313 9.12877 19.7398C9.13323 19.7411 9.13834 19.7424 9.14281 19.743H9.18684C9.61318 19.8534 10.0484 19.5969 10.1582 19.1705C10.1601 19.1635 10.162 19.1565 10.1633 19.1488C10.162 19.1354 10.162 19.122 10.1633 19.1093C10.1869 19.0059 10.4263 17.8373 10.4263 17.8373C10.6075 16.9553 11.3185 16.2794 12.2082 16.1428C12.3914 16.1147 13.1611 16.063 13.1611 16.063C16.4849 15.7318 18.9108 12.7685 18.5789 9.44467C18.2764 6.41312 15.765 4.07914 12.7181 4Z" fill="#1E1E1E"/>
<path d="M13.085 17.9535C12.5393 17.8399 12.0058 18.1903 11.8922 18.7353C11.8909 18.7404 11.8902 18.7455 11.889 18.7507C11.7709 19.2925 12.1143 19.828 12.6567 19.946C12.6574 19.946 12.658 19.946 12.6587 19.9467H12.6867C13.2177 20.075 13.7519 19.7482 13.8796 19.2178C13.8809 19.214 13.8815 19.2095 13.8828 19.2057V19.1502C13.9766 18.6026 13.6268 18.0773 13.085 17.9535Z" fill="#E6007A"/>
</svg>
