<svg width="16" height="16" viewBox="0 0 16 16" fill="none" xmlns="http://www.w3.org/2000/svg">
<rect width="16" height="16" rx="8" fill="#3E7EFF"/>
<path d="M10.3333 6.66732C10.5101 6.66732 10.6797 6.59708 10.8047 6.47206C10.9298 6.34703 11 6.17746 11 6.00065C11 5.82384 10.9298 5.65427 10.8047 5.52925C10.6797 5.40422 10.5101 5.33398 10.3333 5.33398H5.66667C5.48986 5.33398 5.32029 5.40422 5.19526 5.52925C5.07024 5.65427 5 5.82384 5 6.00065C5 6.17746 5.07024 6.34703 5.19526 6.47206C5.32029 6.59708 5.48986 6.66732 5.66667 6.66732M10.3333 6.66732H5.66667M10.3333 6.66732V10.0007C10.3333 10.1775 10.2631 10.347 10.1381 10.4721C10.013 10.5971 9.84348 10.6673 9.66667 10.6673H6.33333C6.15652 10.6673 5.98695 10.5971 5.86193 10.4721C5.7369 10.347 5.66667 10.1775 5.66667 10.0007V6.66732M7.33333 8.00065H8.66667" stroke="white" stroke-width="0.666667" stroke-linecap="round" stroke-linejoin="round"/>
</svg>
