<svg width="16" height="16" viewBox="0 0 16 16" fill="none" xmlns="http://www.w3.org/2000/svg">
<path d="M10 5.99984H10.0067M11.0367 2.56187L13.438 4.96321C13.6161 5.14131 13.7574 5.35276 13.8538 5.58548C13.9503 5.81821 13.9999 6.06764 13.9999 6.31954C13.9999 6.57144 13.9503 6.82087 13.8538 7.05359C13.7574 7.28631 13.6161 7.49777 13.438 7.67587L11.676 9.43787C11.4979 9.61601 11.2864 9.75731 11.0537 9.85372C10.821 9.95012 10.5716 9.99974 10.3197 9.99974C10.0678 9.99974 9.81833 9.95012 9.58561 9.85372C9.35289 9.75731 9.14144 9.61601 8.96333 9.43787L8.76267 9.23721L4.39067 13.6092C4.16915 13.8307 3.87672 13.9671 3.56467 13.9945L3.448 13.9999H2.66667C2.50338 13.9999 2.34578 13.9399 2.22375 13.8314C2.10173 13.7229 2.02377 13.5734 2.00467 13.4112L2 13.3332V12.5519C2.00008 12.2388 2.11029 11.9358 2.31133 11.6959L2.39067 11.6092L2.66667 11.3332H4V9.99987H5.33333V8.66654L6.76267 7.23721L6.562 7.03654C6.38387 6.85843 6.24256 6.64698 6.14616 6.41426C6.04975 6.18154 6.00013 5.9321 6.00013 5.68021C6.00013 5.42831 6.04975 5.17887 6.14616 4.94615C6.24256 4.71343 6.38387 4.50198 6.562 4.32387L8.324 2.56187C8.50211 2.38374 8.71356 2.24243 8.94628 2.14603C9.179 2.04962 9.42843 2 9.68033 2C9.93223 2 10.1817 2.04962 10.4144 2.14603C10.6471 2.24243 10.8586 2.38374 11.0367 2.56187Z" stroke="#3E7EFF" stroke-width="1.33333" stroke-linecap="round" stroke-linejoin="round"/>
</svg>
