<svg width="16" height="16" viewBox="0 0 16 16" fill="none" xmlns="http://www.w3.org/2000/svg">
<path d="M6.66667 7.33333V6C6.66667 5.64638 6.80714 5.30724 7.05719 5.05719C7.30724 4.80714 7.64638 4.66667 8 4.66667C8.35362 4.66667 8.69276 4.80714 8.94281 5.05719C9.19286 5.30724 9.33333 5.64638 9.33333 6V7.33333M8 2C12.8 2 14 3.2 14 8C14 12.8 12.8 14 8 14C3.2 14 2 12.8 2 8C2 3.2 3.2 2 8 2ZM5.33333 8C5.33333 7.82319 5.40357 7.65362 5.5286 7.5286C5.65362 7.40357 5.82319 7.33333 6 7.33333H10C10.1768 7.33333 10.3464 7.40357 10.4714 7.5286C10.5964 7.65362 10.6667 7.82319 10.6667 8V10C10.6667 10.1768 10.5964 10.3464 10.4714 10.4714C10.3464 10.5964 10.1768 10.6667 10 10.6667H6C5.82319 10.6667 5.65362 10.5964 5.5286 10.4714C5.40357 10.3464 5.33333 10.1768 5.33333 10V8Z" stroke="#3E7EFF" stroke-width="1.33333" stroke-linecap="round" stroke-linejoin="round"/>
</svg>
