<svg width="16" height="16" viewBox="0 0 16 16" fill="none" xmlns="http://www.w3.org/2000/svg">
<rect width="16" height="16" rx="8" fill="white"/>
<path d="M7.00008 5.33398H6.33341C6.1566 5.33398 5.98703 5.40422 5.86201 5.52925C5.73699 5.65427 5.66675 5.82384 5.66675 6.00065V10.0007C5.66675 10.1775 5.73699 10.347 5.86201 10.4721C5.98703 10.5971 6.1566 10.6673 6.33341 10.6673H7.00008C7.17689 10.6673 7.34646 10.5971 7.47149 10.4721C7.59651 10.347 7.66675 10.1775 7.66675 10.0007V6.00065C7.66675 5.82384 7.59651 5.65427 7.47149 5.52925C7.34646 5.40422 7.17689 5.33398 7.00008 5.33398Z" fill="#525866"/>
<path d="M9.66675 5.33398H9.00008C8.82327 5.33398 8.6537 5.40422 8.52868 5.52925C8.40365 5.65427 8.33341 5.82384 8.33341 6.00065V10.0007C8.33341 10.1775 8.40365 10.347 8.52868 10.4721C8.6537 10.5971 8.82327 10.6673 9.00008 10.6673H9.66675C9.84356 10.6673 10.0131 10.5971 10.1382 10.4721C10.2632 10.347 10.3334 10.1775 10.3334 10.0007V6.00065C10.3334 5.82384 10.2632 5.65427 10.1382 5.52925C10.0131 5.40422 9.84356 5.33398 9.66675 5.33398Z" fill="#525866"/>
</svg>
