<svg width="16" height="16" viewBox="0 0 16 16" fill="none" xmlns="http://www.w3.org/2000/svg">
<path d="M10 3.33398V4.66732M10 7.33398V8.66732M10 11.334V12.6673M3.33333 3.33398H12.6667C13.0203 3.33398 13.3594 3.47446 13.6095 3.72451C13.8595 3.97456 14 4.3137 14 4.66732V6.66732C13.6464 6.66732 13.3072 6.80779 13.0572 7.05784C12.8071 7.30789 12.6667 7.64703 12.6667 8.00065C12.6667 8.35427 12.8071 8.69341 13.0572 8.94346C13.3072 9.19351 13.6464 9.33398 14 9.33398V11.334C14 11.6876 13.8595 12.0267 13.6095 12.2768C13.3594 12.5268 13.0203 12.6673 12.6667 12.6673H3.33333C2.97971 12.6673 2.64057 12.5268 2.39052 12.2768C2.14048 12.0267 2 11.6876 2 11.334V9.33398C2.35362 9.33398 2.69276 9.19351 2.94281 8.94346C3.19286 8.69341 3.33333 8.35427 3.33333 8.00065C3.33333 7.64703 3.19286 7.30789 2.94281 7.05784C2.69276 6.80779 2.35362 6.66732 2 6.66732V4.66732C2 4.3137 2.14048 3.97456 2.39052 3.72451C2.64057 3.47446 2.97971 3.33398 3.33333 3.33398Z" stroke="#3E7EFF" stroke-width="1.33333" stroke-linecap="round" stroke-linejoin="round"/>
</svg>
